<?xml version="1.0" encoding="UTF-8" standalone="no"?>
<!-- Created with Inkscape (http://www.inkscape.org/) -->

<svg
   width="300"
   height="80"
   viewBox="0 0 79.375001 21.166666"
   version="1.1"
   id="svg1"
   xml:space="preserve"
   xmlns="http://www.w3.org/2000/svg"
   xmlns:svg="http://www.w3.org/2000/svg"><defs
     id="defs1"><style
       id="style1">
      .cls-1 {
        fill: none;
        stroke: #000;
        stroke-linecap: round;
        stroke-linejoin: round;
        stroke-width: 7.14px;
      }
    </style><style
       id="style1-3">
      .cls-1 {
        fill: none;
        stroke: #000;
        stroke-linecap: round;
        stroke-linejoin: round;
        stroke-width: 7.14px;
      }
    </style><linearGradient
       id="swatch242"><stop
         style="stop-color:#ff0000;stop-opacity:1;"
         offset="0"
         id="stop242" /></linearGradient><style
       id="style1-4">
      .cls-1 {
        fill: #1d1714;
      }
    </style></defs><g
     id="layer3"
     transform="translate(-2.3706055e-7,-79.375)"><rect
       style="fill:#262626;fill-opacity:1;stroke:none;stroke-width:0;stroke-dasharray:none"
       id="rect86"
       width="79.375"
       height="21.166666"
       x="2.3706055e-07"
       y="79.375" /><text
       xml:space="preserve"
       style="font-size:11.6417px;line-height:0;font-family:'DejaVu Math TeX Gyre';-inkscape-font-specification:'DejaVu Math TeX Gyre';text-align:start;writing-mode:lr-tb;direction:ltr;text-anchor:start;fill:none;stroke:#000000;stroke-width:0.132292"
       x="26.418543"
       y="94.284683"
       id="text86"><tspan
         id="tspan86"
         style="font-style:normal;font-variant:normal;font-weight:bold;font-stretch:normal;font-size:11.6417px;line-height:0;font-family:Roboto;-inkscape-font-specification:'Roboto Bold';text-align:start;text-anchor:start;fill:#ffffff;fill-opacity:1;stroke:none;stroke-width:0.132292"
         x="26.418543"
         y="94.284683">ASR</tspan></text><g
       id="g151"
       transform="matrix(0.26458333,0,0,0.26458333,4.3640446,83.22828)"
       style="fill:#ffffff;fill-opacity:1"><path
         class="cls-1"
         d="M 60.68732,45.95758 H 4.2218 c -0.53506,0 -0.96751,-0.43304 -0.96751,-0.96751 0,-0.53447 0.43304,-0.96751 0.96751,-0.96751 h 56.46552 c 0.53507,0 0.96751,0.43304 0.96751,0.96751 0,0.53447 -0.43303,0.96751 -0.96751,0.96751 z"
         id="path1"
         style="fill:#ffffff;fill-opacity:1;stroke-width:0.05932" /><path
         class="cls-1"
         d="M 55.20497,50.87284 H 9.70475 c -0.53507,0 -0.96751,-0.43304 -0.96751,-0.96751 0,-0.53448 0.43304,-0.96751 0.96751,-0.96751 h 45.50022 c 0.53507,0 0.96751,0.43303 0.96751,0.96751 0,0.53447 -0.43304,0.96751 -0.96751,0.96751 z"
         id="path2-7"
         style="fill:#ffffff;fill-opacity:1;stroke-width:0.05932" /><path
         class="cls-1"
         d="M 7.12492,33.42149 H 0.96751 C 0.43244,33.42149 0,32.98845 0,32.45398 0,31.9195 0.43303,31.48647 0.96751,31.48647 h 6.15741 c 0.53507,0 0.96751,0.43303 0.96751,0.96751 0,0.53447 -0.43303,0.96751 -0.96751,0.96751 z"
         id="path3"
         style="fill:#ffffff;fill-opacity:1;stroke-width:0.05932" /><path
         class="cls-1"
         d="m 63.94221,33.42149 h -6.15919 c -0.53507,0 -0.96751,-0.43304 -0.96751,-0.96751 0,-0.53448 0.43303,-0.96751 0.96751,-0.96751 h 6.15919 c 0.53507,0 0.96751,0.43303 0.96751,0.96751 0,0.53447 -0.43303,0.96751 -0.96751,0.96751 z"
         id="path4"
         style="fill:#ffffff;fill-opacity:1;stroke-width:0.05932" /><path
         class="cls-1"
         d="m 54.39051,20.75904 c -0.33279,0 -0.65964,-0.17381 -0.83701,-0.48405 -0.26813,-0.46329 -0.10974,-1.05471 0.35355,-1.32106 l 5.33346,-3.08049 c 0.45914,-0.2705 1.05471,-0.11152 1.32106,0.35355 0.26812,0.46329 0.10974,1.05471 -0.35355,1.32106 l -5.33346,3.08048 c -0.15305,0.089 -0.31914,0.13051 -0.48405,0.13051 z"
         id="path5"
         style="fill:#ffffff;fill-opacity:1;stroke-width:0.05932" /><path
         class="cls-1"
         d="m 45.1182,11.48673 c -0.16432,0 -0.33101,-0.0415 -0.48405,-0.13051 -0.46329,-0.26634 -0.62168,-0.85776 -0.35355,-1.32105 l 3.08049,-5.33346 c 0.26634,-0.46329 0.86014,-0.6199 1.32105,-0.35355 0.46329,0.26635 0.62168,0.85777 0.35355,1.32106 l -3.08049,5.33346 c -0.17736,0.31024 -0.50481,0.48405 -0.837,0.48405 z"
         id="path6"
         style="fill:#ffffff;fill-opacity:1;stroke-width:0.05932" /><path
         class="cls-1"
         d="m 32.45397,8.09481 c -0.53507,0 -0.96751,-0.43303 -0.96751,-0.96751 V 0.96751 C 31.48646,0.43245 31.9195,0 32.45397,0 c 0.53447,0 0.96751,0.43304 0.96751,0.96751 v 6.1592 c 0,0.53507 -0.43304,0.96751 -0.96751,0.96751 z"
         id="path7"
         style="fill:#ffffff;fill-opacity:1;stroke-width:0.05932" /><path
         class="cls-1"
         d="m 19.78915,11.48673 c -0.33279,0 -0.65964,-0.17381 -0.837,-0.48405 L 15.87344,5.66922 C 15.60531,5.20593 15.7637,4.61451 16.22698,4.34816 16.6879,4.08003 17.28169,4.23842 17.54804,4.70171 l 3.07871,5.33346 c 0.26813,0.46329 0.10974,1.05471 -0.35355,1.32105 -0.15304,0.089 -0.31914,0.13051 -0.48405,0.13051 z"
         id="path8"
         style="fill:#ffffff;fill-opacity:1;stroke-width:0.05932" /><path
         class="cls-1"
         d="m 10.51921,20.75904 c -0.16431,0 -0.331,-0.0415 -0.48405,-0.13051 L 4.7017,17.54805 C 4.23841,17.2817 4.08003,16.69028 4.34815,16.22699 4.6145,15.7637 5.21007,15.60532 5.66921,15.87344 l 5.33346,3.08049 c 0.46329,0.26635 0.62168,0.85777 0.35355,1.32106 -0.17737,0.31024 -0.50481,0.48405 -0.83701,0.48405 z"
         id="path9"
         style="fill:#ffffff;fill-opacity:1;stroke-width:0.05932" /><path
         class="cls-1"
         d="m 50.41785,38.4447 c -0.0872,0 -0.17559,-0.0113 -0.26279,-0.0362 -0.51431,-0.14534 -0.81447,-0.6804 -0.66913,-1.19471 0.44253,-1.56486 0.66735,-3.16591 0.66735,-4.76102 0,-9.75755 -7.93939,-17.69753 -17.69931,-17.69753 -9.75992,0 -17.69753,7.93939 -17.69753,17.69753 0,1.59511 0.22482,3.19616 0.66735,4.76102 0.14534,0.51431 -0.15482,1.04878 -0.66913,1.19471 -0.50837,0.14948 -1.047,-0.15483 -1.1947,-0.66913 -0.48939,-1.73511 -0.73913,-3.51353 -0.73913,-5.28601 0,-10.8253 8.80724,-19.63254 19.63255,-19.63254 10.8253,0 19.63432,8.80724 19.63432,19.63254 0,1.77248 -0.24973,3.5509 -0.73912,5.28601 -0.12102,0.4271 -0.50838,0.70472 -0.93192,0.70472 z"
         id="path10"
         style="fill:#ffffff;fill-opacity:1;stroke-width:0.05932" /></g><rect
       style="display:none;fill:none;fill-opacity:1;stroke:#ffffff;stroke-width:0.510129;stroke-dasharray:none;stroke-opacity:1"
       id="rect151"
       width="25.948204"
       height="20.656538"
       x="0.25506473"
       y="79.630066" /></g></svg>
