<?xml version="1.0" encoding="UTF-8" standalone="no"?>
<!-- Created with Inkscape (http://www.inkscape.org/) -->

<svg
   width="300"
   height="80"
   viewBox="0 0 79.375001 21.166666"
   version="1.1"
   id="svg1"
   xml:space="preserve"
   xmlns="http://www.w3.org/2000/svg"
   xmlns:svg="http://www.w3.org/2000/svg"><defs
     id="defs1"><style
       id="style1">
      .cls-1 {
        fill: none;
        stroke: #000;
        stroke-linecap: round;
        stroke-linejoin: round;
        stroke-width: 7.14px;
      }
    </style><style
       id="style1-3">
      .cls-1 {
        fill: none;
        stroke: #000;
        stroke-linecap: round;
        stroke-linejoin: round;
        stroke-width: 7.14px;
      }
    </style><linearGradient
       id="swatch242"><stop
         style="stop-color:#ff0000;stop-opacity:1;"
         offset="0"
         id="stop242" /></linearGradient><style
       id="style1-4">
      .cls-1 {
        fill: #1d1714;
      }
    </style></defs><g
     id="layer5"
     transform="translate(-2.3706055e-7,-132.29167)"><rect
       style="fill:#262626;fill-opacity:1;stroke:none;stroke-width:0;stroke-dasharray:none"
       id="rect162"
       width="79.375"
       height="21.166666"
       x="2.3706055e-07"
       y="132.29167" /><text
       xml:space="preserve"
       style="font-size:11.6417px;line-height:0;font-family:'DejaVu Math TeX Gyre';-inkscape-font-specification:'DejaVu Math TeX Gyre';text-align:start;writing-mode:lr-tb;direction:ltr;text-anchor:start;fill:none;stroke:#000000;stroke-width:0.132292"
       x="25.605669"
       y="147.20134"
       id="text162"><tspan
         id="tspan162"
         style="font-style:normal;font-variant:normal;font-weight:bold;font-stretch:normal;font-size:11.6417px;line-height:0;font-family:Roboto;-inkscape-font-specification:'Roboto Bold';text-align:start;text-anchor:start;fill:#ffffff;fill-opacity:1;stroke:none;stroke-width:0.132292"
         x="25.605669"
         y="147.20134">ISHA</tspan></text><g
       id="g4"
       style="fill:#ffffff;fill-opacity:1"
       transform="matrix(0.02146035,0,0,0.02146035,7.3592245,136.36372)"><path
         d="m 186.25,31.26 c -19.7,41.45 -29.96,86.82 -29.96,133.44 0,171.71 139.7,311.41 311.41,311.41 8.84,0 17.66,-0.37 26.44,-1.11 -51.72,54.71 -123.95,86.36 -200.49,86.36 -37.25,0 -73.38,-7.29 -107.38,-21.67 C 153.42,525.8 123.91,505.9 98.57,480.56 73.23,455.22 53.33,425.71 39.44,392.86 25.06,358.86 17.77,322.73 17.77,285.48 c 0,-31.81 5.36,-62.98 15.94,-92.65 10.22,-28.68 25.08,-55.34 44.15,-79.25 18.9,-23.7 41.4,-44.01 66.87,-60.38 13.26,-8.52 27.14,-15.85 41.53,-21.93 M 224.57,0 Z m 0,0 C 95.72,31.07 0,147.09 0,285.48 c 0,162.18 131.47,293.64 293.64,293.64 101.13,0 190.32,-51.13 243.13,-128.94 -22.15,5.34 -45.29,8.17 -69.08,8.17 -162.18,0 -293.64,-131.47 -293.64,-293.64 0,-61.04 18.63,-117.73 50.51,-164.7 v 0 z"
         id="path1-2"
         style="fill:#ffffff;fill-opacity:1" /><path
         d="m 356.89,333.2 c -1.41,0 -2.83,-0.34 -4.13,-1.02 l -34.84,-18.32 -34.84,18.32 c -2.99,1.57 -6.62,1.31 -9.35,-0.68 -2.73,-1.99 -4.1,-5.35 -3.53,-8.69 l 6.65,-38.8 -28.19,-27.48 c -2.42,-2.36 -3.29,-5.89 -2.25,-9.1 1.04,-3.22 3.82,-5.56 7.17,-6.04 l 38.95,-5.66 17.42,-35.3 c 1.5,-3.03 4.58,-4.95 7.96,-4.95 3.38,0 6.47,1.92 7.96,4.95 l 17.42,35.3 38.95,5.66 c 3.35,0.49 6.12,2.83 7.17,6.04 1.04,3.21 0.17,6.74 -2.25,9.1 l -28.19,27.48 6.65,38.8 c 0.57,3.33 -0.8,6.7 -3.53,8.69 -1.55,1.12 -3.38,1.7 -5.22,1.7 z m -38.97,-38.25 c 1.42,0 2.84,0.34 4.13,1.02 l 23.05,12.12 -4.4,-25.66 c -0.49,-2.88 0.46,-5.82 2.55,-7.86 l 18.65,-18.17 -25.77,-3.74 c -2.89,-0.42 -5.39,-2.24 -6.69,-4.86 L 317.92,224.45 306.4,247.8 c -1.29,2.62 -3.79,4.44 -6.69,4.86 l -25.77,3.74 18.65,18.17 c 2.09,2.04 3.05,4.98 2.55,7.86 l -4.4,25.66 23.05,-12.12 c 1.29,-0.68 2.71,-1.02 4.13,-1.02 z"
         id="path2-0"
         style="fill:#ffffff;fill-opacity:1" /><path
         d="m 297.01,184.6 c -1.41,0 -2.83,-0.34 -4.13,-1.02 l -15.22,-8 -15.22,8 c -2.99,1.57 -6.62,1.31 -9.35,-0.68 -2.73,-1.99 -4.1,-5.35 -3.53,-8.69 l 2.91,-16.95 -12.31,-12 c -2.42,-2.36 -3.29,-5.89 -2.25,-9.1 1.04,-3.22 3.82,-5.56 7.17,-6.04 l 17.02,-2.47 7.61,-15.42 c 1.5,-3.03 4.58,-4.95 7.96,-4.95 3.38,0 6.47,1.92 7.96,4.95 l 7.61,15.42 17.02,2.47 c 3.35,0.49 6.12,2.83 7.17,6.04 1.04,3.21 0.17,6.74 -2.25,9.1 l -12.31,12 2.91,16.95 c 0.57,3.33 -0.8,6.7 -3.53,8.69 -1.55,1.12 -3.38,1.7 -5.22,1.7 z m -19.35,-27.94 c 1.42,0 2.84,0.34 4.13,1.02 l 3.43,1.8 -0.65,-3.82 c -0.49,-2.88 0.46,-5.82 2.55,-7.86 l 2.77,-2.7 -3.83,-0.56 c -2.89,-0.42 -5.39,-2.24 -6.69,-4.86 l -1.71,-3.47 -1.71,3.47 c -1.29,2.62 -3.79,4.44 -6.69,4.86 l -3.83,0.56 2.77,2.7 c 2.09,2.04 3.05,4.98 2.55,7.86 l -0.65,3.82 3.43,-1.8 c 1.29,-0.68 2.71,-1.02 4.13,-1.02 z"
         id="path3-6"
         style="fill:#ffffff;fill-opacity:1" /><path
         d="m 468.7,394.18 c -1.41,0 -2.83,-0.34 -4.13,-1.02 l -15.22,-8 -15.22,8 c -2.99,1.57 -6.62,1.31 -9.35,-0.68 -2.73,-1.99 -4.1,-5.35 -3.53,-8.68 l 2.91,-16.95 -12.31,-12 c -2.42,-2.36 -3.29,-5.89 -2.25,-9.1 1.04,-3.22 3.82,-5.56 7.17,-6.04 l 17.02,-2.47 7.61,-15.42 c 1.5,-3.03 4.58,-4.95 7.96,-4.95 3.38,0 6.47,1.92 7.96,4.95 l 7.61,15.42 17.02,2.47 c 3.35,0.49 6.12,2.83 7.17,6.04 1.04,3.21 0.17,6.74 -2.25,9.1 l -12.31,12 2.91,16.95 c 0.57,3.33 -0.8,6.7 -3.53,8.68 -1.55,1.12 -3.38,1.7 -5.22,1.7 z m -19.35,-27.94 c 1.42,0 2.84,0.34 4.13,1.02 l 3.43,1.8 -0.65,-3.82 c -0.49,-2.88 0.46,-5.82 2.55,-7.86 l 2.77,-2.7 -3.83,-0.56 c -2.89,-0.42 -5.39,-2.24 -6.69,-4.86 l -1.71,-3.47 -1.71,3.47 c -1.29,2.62 -3.79,4.44 -6.69,4.86 l -3.83,0.56 2.77,2.7 c 2.09,2.04 3.05,4.98 2.55,7.86 l -0.65,3.82 3.43,-1.8 c 1.29,-0.68 2.71,-1.02 4.13,-1.02 z"
         id="path4-8"
         style="fill:#ffffff;fill-opacity:1" /></g><rect
       style="display:none;fill:none;fill-opacity:1;stroke:#ffffff;stroke-width:0.510129;stroke-dasharray:none;stroke-opacity:1"
       id="rect163"
       width="25.948204"
       height="20.656538"
       x="0.25506473"
       y="132.54674" /></g></svg>
