<?xml version="1.0" encoding="UTF-8" standalone="no"?>
<!-- Created with Inkscape (http://www.inkscape.org/) -->

<svg
   width="300"
   height="80"
   viewBox="0 0 79.375001 21.166666"
   version="1.1"
   id="svg1"
   xml:space="preserve"
   xmlns="http://www.w3.org/2000/svg"
   xmlns:svg="http://www.w3.org/2000/svg"><defs
     id="defs1"><style
       id="style1">
      .cls-1 {
        fill: none;
        stroke: #000;
        stroke-linecap: round;
        stroke-linejoin: round;
        stroke-width: 7.14px;
      }
    </style><style
       id="style1-3">
      .cls-1 {
        fill: none;
        stroke: #000;
        stroke-linecap: round;
        stroke-linejoin: round;
        stroke-width: 7.14px;
      }
    </style><linearGradient
       id="swatch242"><stop
         style="stop-color:#ff0000;stop-opacity:1;"
         offset="0"
         id="stop242" /></linearGradient><style
       id="style1-4">
      .cls-1 {
        fill: #1d1714;
      }
    </style></defs><g
     id="layer4"
     transform="translate(-2.3706055e-7,-105.83334)"><rect
       style="fill:#262626;fill-opacity:1;stroke:none;stroke-width:0;stroke-dasharray:none"
       id="rect152"
       width="79.375"
       height="21.166666"
       x="2.3706055e-07"
       y="105.83334" /><text
       xml:space="preserve"
       style="font-size:11.6417px;line-height:0;font-family:'DejaVu Math TeX Gyre';-inkscape-font-specification:'DejaVu Math TeX Gyre';text-align:start;writing-mode:lr-tb;direction:ltr;text-anchor:start;fill:none;stroke:#000000;stroke-width:0.132292"
       x="25.719358"
       y="120.74301"
       id="text152"><tspan
         id="tspan152"
         style="font-style:normal;font-variant:normal;font-weight:bold;font-stretch:normal;font-size:11.6417px;line-height:0;font-family:Roboto;-inkscape-font-specification:'Roboto Bold';text-align:start;text-anchor:start;fill:#ffffff;fill-opacity:1;stroke:none;stroke-width:0.132292"
         x="25.719358"
         y="120.74301">MAGHRIB</tspan></text><g
       id="g7"
       style="display:inline;fill:#ffffff;fill-opacity:1"
       transform="matrix(0.02002057,0,0,0.02002057,7.1666579,110.49339)"><path
         d="m 302.62,17.76 c 24.84,0 49.72,3.29 73.95,9.79 70.89,19 131.02,63.92 169.31,126.5 35.64,58.25 49.09,126.33 38.46,193.18 H 21.23 c -6.27,-39.39 -4.16,-79.07 6.31,-118.16 8.35,-31.16 21.7,-60.34 39.68,-86.73 17.38,-25.51 38.73,-47.94 63.46,-66.65 24.49,-18.53 51.64,-32.93 80.69,-42.8 29.5,-10.02 60.2,-15.11 91.24,-15.11 M 302.62,0 C 168.95,0 46.63,89.2 10.39,224.46 -2.35,271.99 -3.03,319.91 6.46,364.98 H 599.11 C 632.04,208.72 537.28,52.22 381.17,10.39 354.93,3.36 328.56,0 302.63,0 v 0 z"
         id="path1-8"
         style="fill:#ffffff;fill-opacity:1" /><path
         d="m 594.93,384.51 c -1.67,6 -3.52,11.92 -5.54,17.76 H 16.22 c -2.04,-5.85 -3.9,-11.77 -5.58,-17.76 z"
         id="path2-8"
         style="fill:#ffffff;fill-opacity:1" /><path
         d="m 581.64,422.4 c -2.57,6.03 -5.32,11.95 -8.26,17.76 H 32.37 C 29.39,434.33 26.62,428.4 24.05,422.4 Z"
         id="path3-4"
         style="fill:#ffffff;fill-opacity:1" /><path
         d="m 562.23,460.29 c -3.67,6.06 -7.55,11.99 -11.63,17.76 H 55.22 c -4.1,-5.79 -7.98,-11.71 -11.66,-17.76 z"
         id="path4-3"
         style="fill:#ffffff;fill-opacity:1" /><path
         d="m 535.06,498.18 c -5.16,6.13 -10.57,12.05 -16.23,17.76 H 86.93 c -2.07,-2.08 -4.11,-4.2 -6.11,-6.36 -3.46,-3.72 -6.82,-7.52 -10.08,-11.4 h 464.31 z"
         id="path5-1"
         style="fill:#ffffff;fill-opacity:1" /><path
         d="m 496.82,536.07 c -7.57,6.28 -15.46,12.2 -23.68,17.76 H 132.43 c -8.15,-5.52 -16.03,-11.45 -23.61,-17.76 z"
         id="path6-4"
         style="fill:#ffffff;fill-opacity:1" /><path
         d="m 438.8,573.96 c -14.04,7.08 -28.5,13 -43.24,17.76 H 210.41 c -15.04,-4.8 -29.63,-10.74 -43.62,-17.76 z"
         id="path7-9"
         style="fill:#ffffff;fill-opacity:1" /></g><rect
       style="display:none;fill:none;fill-opacity:1;stroke:#ffffff;stroke-width:0.510129;stroke-dasharray:none;stroke-opacity:1"
       id="rect161"
       width="25.948204"
       height="20.656538"
       x="0.25506473"
       y="106.08841" /></g></svg>
