<?xml version="1.0" encoding="UTF-8" standalone="no"?>
<svg
   id="Layer_2"
   data-name="Layer 2"
   viewBox="0 0 64.909723 50.872842"
   version="1.1"
   sodipodi:docname="asr.svg"
   width="64.909721"
   height="50.872841"
   inkscape:version="1.4.1 (93de688d07, 2025-03-30)"
   xmlns:inkscape="http://www.inkscape.org/namespaces/inkscape"
   xmlns:sodipodi="http://sodipodi.sourceforge.net/DTD/sodipodi-0.dtd"
   xmlns="http://www.w3.org/2000/svg"
   xmlns:svg="http://www.w3.org/2000/svg">
  <sodipodi:namedview
     id="namedview10"
     pagecolor="#505050"
     bordercolor="#ffffff"
     borderopacity="1"
     inkscape:showpageshadow="0"
     inkscape:pageopacity="0"
     inkscape:pagecheckerboard="1"
     inkscape:deskcolor="#505050"
     inkscape:zoom="6.8870348"
     inkscape:cx="31.43588"
     inkscape:cy="27.733271"
     inkscape:window-width="1600"
     inkscape:window-height="863"
     inkscape:window-x="0"
     inkscape:window-y="0"
     inkscape:window-maximized="1"
     inkscape:current-layer="Layer_2" />
  <defs
     id="defs1">
    <style
       id="style1">
      .cls-1 {
        fill: #1d1714;
      }
    </style>
  </defs>
  <path
     class="cls-1"
     d="M 60.68732,45.95758 H 4.2218 c -0.53506,0 -0.96751,-0.43304 -0.96751,-0.96751 0,-0.53447 0.43304,-0.96751 0.96751,-0.96751 h 56.46552 c 0.53507,0 0.96751,0.43304 0.96751,0.96751 0,0.53447 -0.43303,0.96751 -0.96751,0.96751 z"
     id="path1"
     style="stroke-width:0.05932;fill:#e2e8eb" />
  <path
     class="cls-1"
     d="M 55.20497,50.87284 H 9.70475 c -0.53507,0 -0.96751,-0.43304 -0.96751,-0.96751 0,-0.53448 0.43304,-0.96751 0.96751,-0.96751 h 45.50022 c 0.53507,0 0.96751,0.43303 0.96751,0.96751 0,0.53447 -0.43304,0.96751 -0.96751,0.96751 z"
     id="path2"
     style="stroke-width:0.05932;fill:#e2e8eb" />
  <path
     class="cls-1"
     d="M 7.12492,33.42149 H 0.96751 C 0.43244,33.42149 0,32.98845 0,32.45398 0,31.9195 0.43303,31.48647 0.96751,31.48647 h 6.15741 c 0.53507,0 0.96751,0.43303 0.96751,0.96751 0,0.53447 -0.43303,0.96751 -0.96751,0.96751 z"
     id="path3"
     style="stroke-width:0.05932;fill:#e2e8eb" />
  <path
     class="cls-1"
     d="m 63.94221,33.42149 h -6.15919 c -0.53507,0 -0.96751,-0.43304 -0.96751,-0.96751 0,-0.53448 0.43303,-0.96751 0.96751,-0.96751 h 6.15919 c 0.53507,0 0.96751,0.43303 0.96751,0.96751 0,0.53447 -0.43303,0.96751 -0.96751,0.96751 z"
     id="path4"
     style="stroke-width:0.05932;fill:#e2e8eb" />
  <path
     class="cls-1"
     d="m 54.39051,20.75904 c -0.33279,0 -0.65964,-0.17381 -0.83701,-0.48405 -0.26813,-0.46329 -0.10974,-1.05471 0.35355,-1.32106 l 5.33346,-3.08049 c 0.45914,-0.2705 1.05471,-0.11152 1.32106,0.35355 0.26812,0.46329 0.10974,1.05471 -0.35355,1.32106 l -5.33346,3.08048 c -0.15305,0.089 -0.31914,0.13051 -0.48405,0.13051 z"
     id="path5"
     style="stroke-width:0.05932;fill:#e2e8eb" />
  <path
     class="cls-1"
     d="m 45.1182,11.48673 c -0.16432,0 -0.33101,-0.0415 -0.48405,-0.13051 -0.46329,-0.26634 -0.62168,-0.85776 -0.35355,-1.32105 l 3.08049,-5.33346 c 0.26634,-0.46329 0.86014,-0.6199 1.32105,-0.35355 0.46329,0.26635 0.62168,0.85777 0.35355,1.32106 l -3.08049,5.33346 c -0.17736,0.31024 -0.50481,0.48405 -0.837,0.48405 z"
     id="path6"
     style="stroke-width:0.05932;fill:#e2e8eb" />
  <path
     class="cls-1"
     d="m 32.45397,8.09481 c -0.53507,0 -0.96751,-0.43303 -0.96751,-0.96751 V 0.96751 C 31.48646,0.43245 31.9195,0 32.45397,0 c 0.53447,0 0.96751,0.43304 0.96751,0.96751 v 6.1592 c 0,0.53507 -0.43304,0.96751 -0.96751,0.96751 z"
     id="path7"
     style="stroke-width:0.05932;fill:#e2e8eb" />
  <path
     class="cls-1"
     d="m 19.78915,11.48673 c -0.33279,0 -0.65964,-0.17381 -0.837,-0.48405 L 15.87344,5.66922 C 15.60531,5.20593 15.7637,4.61451 16.22698,4.34816 16.6879,4.08003 17.28169,4.23842 17.54804,4.70171 l 3.07871,5.33346 c 0.26813,0.46329 0.10974,1.05471 -0.35355,1.32105 -0.15304,0.089 -0.31914,0.13051 -0.48405,0.13051 z"
     id="path8"
     style="stroke-width:0.05932;fill:#e2e8eb" />
  <path
     class="cls-1"
     d="m 10.51921,20.75904 c -0.16431,0 -0.331,-0.0415 -0.48405,-0.13051 L 4.7017,17.54805 C 4.23841,17.2817 4.08003,16.69028 4.34815,16.22699 4.6145,15.7637 5.21007,15.60532 5.66921,15.87344 l 5.33346,3.08049 c 0.46329,0.26635 0.62168,0.85777 0.35355,1.32106 -0.17737,0.31024 -0.50481,0.48405 -0.83701,0.48405 z"
     id="path9"
     style="stroke-width:0.05932;fill:#e2e8eb" />
  <path
     class="cls-1"
     d="m 50.41785,38.4447 c -0.0872,0 -0.17559,-0.0113 -0.26279,-0.0362 -0.51431,-0.14534 -0.81447,-0.6804 -0.66913,-1.19471 0.44253,-1.56486 0.66735,-3.16591 0.66735,-4.76102 0,-9.75755 -7.93939,-17.69753 -17.69931,-17.69753 -9.75992,0 -17.69753,7.93939 -17.69753,17.69753 0,1.59511 0.22482,3.19616 0.66735,4.76102 0.14534,0.51431 -0.15482,1.04878 -0.66913,1.19471 -0.50837,0.14948 -1.047,-0.15483 -1.1947,-0.66913 -0.48939,-1.73511 -0.73913,-3.51353 -0.73913,-5.28601 0,-10.8253 8.80724,-19.63254 19.63255,-19.63254 10.8253,0 19.63432,8.80724 19.63432,19.63254 0,1.77248 -0.24973,3.5509 -0.73912,5.28601 -0.12102,0.4271 -0.50838,0.70472 -0.93192,0.70472 z"
     id="path10"
     style="stroke-width:0.05932;fill:#e2e8eb" />
</svg>
