<?xml version="1.0" encoding="UTF-8"?>
<svg id="Layer_2" data-name="Layer 2" xmlns="http://www.w3.org/2000/svg" viewBox="0 0 1094.23 857.6">
  <defs>
    <style>
      .cls-1 {
        fill: #1d1714;
      }
    </style>
  </defs>
  <path class="cls-1" d="M1023.05,774.74H71.17c-9.02,0-16.31-7.3-16.31-16.31s7.3-16.31,16.31-16.31h951.88c9.02,0,16.31,7.3,16.31,16.31s-7.3,16.31-16.31,16.31Z"/>
  <path class="cls-1" d="M930.63,857.6H163.6c-9.02,0-16.31-7.3-16.31-16.31s7.3-16.31,16.31-16.31h767.03c9.02,0,16.31,7.3,16.31,16.31s-7.3,16.31-16.31,16.31Z"/>
  <path class="cls-1" d="M120.11,563.41H16.31c-9.02,0-16.31-7.3-16.31-16.31s7.3-16.31,16.31-16.31h103.8c9.02,0,16.31,7.3,16.31,16.31s-7.3,16.31-16.31,16.31Z"/>
  <path class="cls-1" d="M1077.92,563.41h-103.83c-9.02,0-16.31-7.3-16.31-16.31s7.3-16.31,16.31-16.31h103.83c9.02,0,16.31,7.3,16.31,16.31s-7.3,16.31-16.31,16.31Z"/>
  <path class="cls-1" d="M916.9,349.95c-5.61,0-11.12-2.93-14.11-8.16-4.52-7.81-1.85-17.78,5.96-22.27l89.91-51.93c7.74-4.56,17.78-1.88,22.27,5.96,4.52,7.81,1.85,17.78-5.96,22.27l-89.91,51.93c-2.58,1.5-5.38,2.2-8.16,2.2Z"/>
  <path class="cls-1" d="M760.59,193.64c-2.77,0-5.58-.7-8.16-2.2-7.81-4.49-10.48-14.46-5.96-22.27l51.93-89.91c4.49-7.81,14.5-10.45,22.27-5.96,7.81,4.49,10.48,14.46,5.96,22.27l-51.93,89.91c-2.99,5.23-8.51,8.16-14.11,8.16Z"/>
  <path class="cls-1" d="M547.1,136.46c-9.02,0-16.31-7.3-16.31-16.31V16.31c0-9.02,7.3-16.31,16.31-16.31s16.31,7.3,16.31,16.31v103.83c0,9.02-7.3,16.31-16.31,16.31Z"/>
  <path class="cls-1" d="M333.6,193.64c-5.61,0-11.12-2.93-14.11-8.16l-51.9-89.91c-4.52-7.81-1.85-17.78,5.96-22.27,7.77-4.52,17.78-1.85,22.27,5.96l51.9,89.91c4.52,7.81,1.85,17.78-5.96,22.27-2.58,1.5-5.38,2.2-8.16,2.2Z"/>
  <path class="cls-1" d="M177.33,349.95c-2.77,0-5.58-.7-8.16-2.2l-89.91-51.93c-7.81-4.49-10.48-14.46-5.96-22.27,4.49-7.81,14.53-10.48,22.27-5.96l89.91,51.93c7.81,4.49,10.48,14.46,5.96,22.27-2.99,5.23-8.51,8.16-14.11,8.16Z"/>
  <path class="cls-1" d="M849.93,648.09c-1.47,0-2.96-.19-4.43-.61-8.67-2.45-13.73-11.47-11.28-20.14,7.46-26.38,11.25-53.37,11.25-80.26,0-164.49-133.84-298.34-298.37-298.34s-298.34,133.84-298.34,298.34c0,26.89,3.79,53.88,11.25,80.26,2.45,8.67-2.61,17.68-11.28,20.14-8.57,2.52-17.65-2.61-20.14-11.28-8.25-29.25-12.46-59.23-12.46-89.11,0-182.49,148.47-330.96,330.96-330.96s330.99,148.47,330.99,330.96c0,29.88-4.21,59.86-12.46,89.11-2.04,7.2-8.57,11.88-15.71,11.88Z"/>
</svg>