<?xml version="1.0" encoding="UTF-8"?>
<svg id="Layer_2" data-name="Layer 2" xmlns="http://www.w3.org/2000/svg" viewBox="0 0 731.56 731.56">
  <g id="Layer_1-2" data-name="Layer 1">
    <g>
      <path d="M365.78,581.87c-119.15,0-216.09-96.94-216.09-216.09s96.94-216.09,216.09-216.09,216.09,96.94,216.09,216.09-96.94,216.09-216.09,216.09ZM365.78,167.45c-109.36,0-198.33,88.97-198.33,198.33s88.97,198.33,198.33,198.33,198.33-88.97,198.33-198.33-88.97-198.33-198.33-198.33Z"/>
      <path d="M365.78,116.54c-4.91,0-8.88-3.98-8.88-8.88V43.63c0-4.9,3.98-8.88,8.88-8.88s8.88,3.98,8.88,8.88v64.02c0,4.9-3.98,8.88-8.88,8.88Z"/>
      <path d="M236.73,151.12c-3.07,0-6.05-1.59-7.7-4.44l-31.97-55.37c-2.45-4.25-1-9.68,3.25-12.13,4.24-2.45,9.68-1,12.13,3.25l31.97,55.37c2.45,4.25,1,9.68-3.25,12.13-1.4.81-2.93,1.19-4.43,1.19Z"/>
      <path d="M183.26,192.14c-2.27,0-4.55-.87-6.28-2.6l-78.74-78.74c-3.47-3.47-3.47-9.09,0-12.56,3.47-3.47,9.09-3.47,12.56,0l78.74,78.74c3.47,3.47,3.47,9.09,0,12.56-1.73,1.73-4.01,2.6-6.28,2.6Z"/>
      <path d="M142.23,245.6c-1.51,0-3.03-.38-4.43-1.19l-55.44-32c-4.25-2.45-5.7-7.88-3.25-12.13,2.45-4.25,7.88-5.7,12.13-3.25l55.44,32c4.25,2.45,5.7,7.88,3.25,12.13-1.64,2.85-4.63,4.44-7.7,4.44Z"/>
      <path d="M116.46,307.86c-.76,0-1.53-.1-2.3-.3l-107.51-28.81c-4.74-1.27-7.55-6.14-6.28-10.88,1.27-4.74,6.14-7.55,10.88-6.28l107.51,28.81c4.74,1.27,7.55,6.14,6.28,10.88-1.06,3.97-4.65,6.58-8.57,6.58Z"/>
      <path d="M107.66,374.66H43.63c-4.9,0-8.88-3.98-8.88-8.88s3.98-8.88,8.88-8.88h64.02c4.91,0,8.88,3.98,8.88,8.88s-3.98,8.88-8.88,8.88Z"/>
      <path d="M8.88,470.29c-3.92,0-7.51-2.62-8.57-6.59-1.27-4.74,1.54-9.61,6.28-10.88l107.57-28.82c4.73-1.27,9.61,1.54,10.88,6.28,1.27,4.74-1.54,9.61-6.28,10.88l-107.57,28.82c-.77.21-1.54.31-2.3.31Z"/>
      <path d="M86.88,535.69c-3.07,0-6.05-1.59-7.7-4.44-2.45-4.25-1-9.68,3.25-12.13l55.37-31.97c4.25-2.45,9.68-1,12.13,3.25,2.45,4.25,1,9.68-3.25,12.13l-55.37,31.97c-1.4.81-2.93,1.19-4.43,1.19Z"/>
      <path d="M104.52,635.92c-2.27,0-4.55-.87-6.28-2.6-3.47-3.47-3.47-9.09,0-12.56l78.74-78.74c3.47-3.47,9.09-3.47,12.56,0,3.47,3.47,3.47,9.09,0,12.56l-78.74,78.74c-1.73,1.73-4.01,2.6-6.28,2.6Z"/>
      <path d="M204.7,653.64c-1.51,0-3.03-.38-4.43-1.19-4.25-2.45-5.7-7.88-3.25-12.13l32.01-55.44c2.45-4.25,7.88-5.7,12.13-3.25,4.25,2.45,5.7,7.88,3.25,12.13l-32.01,55.44c-1.64,2.85-4.63,4.44-7.7,4.44Z"/>
      <path d="M270.17,731.5c-.76,0-1.53-.1-2.3-.31-4.74-1.27-7.55-6.14-6.28-10.88l28.81-107.51c1.27-4.74,6.14-7.55,10.88-6.28,4.74,1.27,7.55,6.14,6.28,10.88l-28.81,107.51c-1.06,3.97-4.65,6.58-8.57,6.58Z"/>
      <path d="M365.78,696.8c-4.91,0-8.88-3.98-8.88-8.88v-64.02c0-4.9,3.98-8.88,8.88-8.88s8.88,3.98,8.88,8.88v64.02c0,4.9-3.98,8.88-8.88,8.88Z"/>
      <path d="M461.4,731.56c-3.92,0-7.51-2.62-8.57-6.59l-28.82-107.57c-1.27-4.74,1.54-9.61,6.28-10.88,4.73-1.27,9.61,1.54,10.88,6.28l28.82,107.57c1.27,4.74-1.54,9.61-6.28,10.87-.77.21-1.54.31-2.3.31Z"/>
      <path d="M526.82,653.56c-3.07,0-6.05-1.59-7.7-4.44l-31.97-55.37c-2.45-4.25-1-9.68,3.25-12.13,4.25-2.45,9.68-1,12.13,3.25l31.97,55.37c2.45,4.25,1,9.68-3.25,12.13-1.4.81-2.93,1.19-4.43,1.19Z"/>
      <path d="M627.04,635.92c-2.27,0-4.55-.87-6.28-2.6l-78.74-78.74c-3.47-3.47-3.47-9.09,0-12.56,3.47-3.47,9.09-3.47,12.56,0l78.74,78.74c3.47,3.47,3.47,9.09,0,12.56-1.73,1.73-4.01,2.6-6.28,2.6Z"/>
      <path d="M644.75,535.73c-1.51,0-3.03-.38-4.43-1.19l-55.44-32.01c-4.25-2.45-5.7-7.88-3.25-12.13,2.45-4.25,7.88-5.7,12.13-3.25l55.44,32.01c4.25,2.45,5.7,7.88,3.25,12.13-1.64,2.85-4.63,4.44-7.7,4.44Z"/>
      <path d="M722.62,470.27c-.76,0-1.53-.1-2.3-.31l-107.51-28.81c-4.74-1.27-7.55-6.14-6.28-10.88,1.27-4.74,6.14-7.54,10.88-6.28l107.51,28.81c4.74,1.27,7.55,6.14,6.28,10.88-1.06,3.97-4.65,6.58-8.57,6.58Z"/>
      <path d="M687.92,374.66h-64.02c-4.91,0-8.88-3.98-8.88-8.88s3.98-8.88,8.88-8.88h64.02c4.91,0,8.88,3.98,8.88,8.88s-3.98,8.88-8.88,8.88Z"/>
      <path d="M615.1,307.86c-3.92,0-7.51-2.62-8.57-6.58-1.27-4.74,1.54-9.61,6.28-10.88l107.57-28.82c4.73-1.27,9.61,1.54,10.87,6.28,1.27,4.74-1.54,9.61-6.28,10.88l-107.57,28.82c-.77.21-1.54.3-2.3.3Z"/>
      <path d="M589.32,245.6c-3.07,0-6.05-1.59-7.7-4.44-2.45-4.25-1-9.68,3.25-12.13l55.37-31.97c4.25-2.45,9.68-1,12.13,3.25,2.45,4.25,1,9.68-3.25,12.13l-55.37,31.97c-1.4.81-2.93,1.19-4.43,1.19Z"/>
      <path d="M548.3,192.14c-2.27,0-4.55-.87-6.28-2.6-3.47-3.47-3.47-9.09,0-12.56l78.74-78.74c3.47-3.47,9.09-3.47,12.56,0,3.47,3.47,3.47,9.09,0,12.56l-78.74,78.74c-1.73,1.73-4.01,2.6-6.28,2.6Z"/>
      <path d="M494.83,151.12c-1.51,0-3.03-.38-4.43-1.19-4.25-2.45-5.7-7.88-3.25-12.13l32.01-55.44c2.45-4.25,7.88-5.7,12.13-3.25,4.25,2.45,5.7,7.88,3.25,12.13l-32.01,55.44c-1.64,2.85-4.63,4.44-7.7,4.44Z"/>
      <path d="M298.97,125.34c-3.92,0-7.51-2.62-8.57-6.58l-28.82-107.57c-1.27-4.74,1.54-9.61,6.28-10.88,4.73-1.27,9.61,1.54,10.88,6.28l28.82,107.57c1.27,4.74-1.54,9.61-6.28,10.88-.77.21-1.54.3-2.3.3Z"/>
      <path d="M432.59,125.34c-.76,0-1.53-.1-2.3-.3-4.74-1.27-7.55-6.14-6.28-10.88l28.81-107.51c1.27-4.74,6.14-7.55,10.88-6.28,4.74,1.27,7.55,6.14,6.28,10.88l-28.81,107.51c-1.06,3.97-4.65,6.58-8.57,6.58Z"/>
    </g>
  </g>
</svg>