<?xml version="1.0" encoding="UTF-8" standalone="no"?>
<!-- Created with Inkscape (http://www.inkscape.org/) -->

<svg
   width="300"
   height="580"
   viewBox="0 0 79.375001 153.45833"
   version="1.1"
   id="svg1"
   inkscape:version="1.4.1 (93de688d07, 2025-03-30)"
   sodipodi:docname="fajra.svg"
   inkscape:export-filename="fajr.svg"
   inkscape:export-xdpi="96"
   inkscape:export-ydpi="96"
   xml:space="preserve"
   inkscape:export-batch-path="real"
   inkscape:export-batch-name=""
   xmlns:inkscape="http://www.inkscape.org/namespaces/inkscape"
   xmlns:sodipodi="http://sodipodi.sourceforge.net/DTD/sodipodi-0.dtd"
   xmlns="http://www.w3.org/2000/svg"
   xmlns:svg="http://www.w3.org/2000/svg"><sodipodi:namedview
     id="namedview1"
     pagecolor="#505050"
     bordercolor="#ffffff"
     borderopacity="1"
     inkscape:showpageshadow="0"
     inkscape:pageopacity="0"
     inkscape:pagecheckerboard="1"
     inkscape:deskcolor="#505050"
     inkscape:document-units="mm"
     inkscape:zoom="0.70710678"
     inkscape:cx="285.67114"
     inkscape:cy="288.49957"
     inkscape:window-width="1600"
     inkscape:window-height="863"
     inkscape:window-x="0"
     inkscape:window-y="0"
     inkscape:window-maximized="1"
     inkscape:current-layer="layer1"
     showgrid="false"><inkscape:grid
       id="grid3"
       units="mm"
       originx="-6.2203246e-39"
       originy="-3.8333347"
       spacingx="1"
       spacingy="1"
       empcolor="#0099e5"
       empopacity="0.30196078"
       color="#0099e5"
       opacity="0.14902"
       empspacing="5"
       enabled="true"
       visible="false" /></sodipodi:namedview><defs
     id="defs1"><inkscape:path-effect
       effect="fillet_chamfer"
       id="path-effect3"
       is_visible="true"
       lpeversion="1"
       nodesatellites_param="F,0,0,1,0,0,0,1 @ F,0,0,1,0,0,0,1 @ F,0,0,1,0,0,0,1 @ F,0,0,1,0,0,0,1"
       radius="0"
       unit="px"
       method="auto"
       mode="F"
       chamfer_steps="1"
       flexible="false"
       use_knot_distance="true"
       apply_no_radius="true"
       apply_with_radius="true"
       only_selected="false"
       hide_knots="false" /><inkscape:path-effect
       effect="fillet_chamfer"
       id="path-effect2"
       is_visible="true"
       lpeversion="1"
       nodesatellites_param="F,0,0,1,0,0,0,1 @ F,0,0,1,0,0,0,1 @ F,0,0,1,0,0,0,1 @ F,0,0,1,0,0,0,1"
       radius="0"
       unit="px"
       method="auto"
       mode="F"
       chamfer_steps="1"
       flexible="false"
       use_knot_distance="true"
       apply_no_radius="true"
       apply_with_radius="true"
       only_selected="false"
       hide_knots="false" /><style
       id="style1">
      .cls-1 {
        fill: none;
        stroke: #000;
        stroke-linecap: round;
        stroke-linejoin: round;
        stroke-width: 7.14px;
      }
    </style><style
       id="style1-3">
      .cls-1 {
        fill: none;
        stroke: #000;
        stroke-linecap: round;
        stroke-linejoin: round;
        stroke-width: 7.14px;
      }
    </style><linearGradient
       id="swatch242"
       inkscape:swatch="solid"><stop
         style="stop-color:#ff0000;stop-opacity:1;"
         offset="0"
         id="stop242" /></linearGradient><style
       id="style1-4">
      .cls-1 {
        fill: #1d1714;
      }
    </style></defs><g
     inkscape:label="fajr"
     inkscape:groupmode="layer"
     id="layer1"
     transform="translate(-63.112499,-125.60333)"><rect
       style="fill:#262626;fill-opacity:1;stroke:none;stroke-width:0;stroke-dasharray:none"
       id="rect1"
       width="79.375"
       height="21.166666"
       x="0"
       y="0"
       transform="translate(63.112499,125.60333)" /><text
       xml:space="preserve"
       style="font-size:9.525px;line-height:0;font-family:'DejaVu Math TeX Gyre';-inkscape-font-specification:'DejaVu Math TeX Gyre';text-align:start;writing-mode:lr-tb;direction:ltr;text-anchor:start;fill:none;stroke:#000000;stroke-width:0.132292"
       x="88.966217"
       y="139.526"
       id="text1"
       inkscape:transform-center-x="-0.0928125"
       inkscape:transform-center-y="0.48726563"><tspan
         sodipodi:role="line"
         id="tspan1"
         style="font-style:normal;font-variant:normal;font-weight:bold;font-stretch:normal;font-size:9.525px;line-height:0;font-family:Roboto;-inkscape-font-specification:'Roboto Bold';text-align:start;text-anchor:start;fill:#ffffff;fill-opacity:1;stroke:none;stroke-width:0.132292"
         x="88.966217"
         y="139.526">Fajr</tspan></text><g
       id="g50"
       transform="matrix(0.06170511,0,0,0.06057664,66.378758,128.40316)"><path
         class="cls-1"
         d="m 72.27,162.51 c 0,-49.26 39.93,-89.19 89.19,-89.19 49.26,0 89.19,39.93 89.19,89.19 z"
         id="path39"
         style="fill:none;stroke:#ffffff;stroke-width:8.29595;stroke-dasharray:none" /><line
         class="cls-1"
         x1="120.56"
         y1="55.790001"
         x2="111.05"
         y2="30.99"
         id="line42"
         style="stroke:#ffffff;stroke-width:8.29595;stroke-dasharray:none" /><line
         class="cls-1"
         x1="59.779999"
         y1="110.52"
         x2="36.110001"
         y2="98.459999"
         id="line43"
         style="stroke:#ffffff;stroke-width:8.29595;stroke-dasharray:none" /><line
         class="cls-1"
         x1="202.36"
         y1="55.790001"
         x2="211.88"
         y2="30.99"
         id="line46"
         style="stroke:#ffffff;stroke-width:8.29595;stroke-dasharray:none" /><line
         class="cls-1"
         x1="263.14001"
         y1="110.52"
         x2="286.81"
         y2="98.459999"
         id="line47"
         style="stroke:#ffffff;stroke-width:8.29595;stroke-dasharray:none" /><line
         class="cls-1"
         x1="47.950001"
         y1="183.67"
         x2="274.98001"
         y2="183.67"
         id="line48"
         style="stroke:#ffffff;stroke-width:8.29595;stroke-dasharray:none" /><line
         class="cls-1"
         x1="72.269997"
         y1="204.82001"
         x2="250.64999"
         y2="204.82001"
         id="line49"
         style="stroke:#ffffff;stroke-width:8.29595;stroke-dasharray:none" /><line
         class="cls-1"
         x1="226.32001"
         y1="225.99001"
         x2="96.589996"
         y2="225.99001"
         id="line50"
         style="stroke:#ffffff;stroke-width:8.29595;stroke-dasharray:none" /></g><rect
       style="display:none;fill:none;fill-opacity:1;stroke:#ffffff;stroke-width:0.510129;stroke-dasharray:none;stroke-opacity:1"
       id="rect3"
       width="25.948204"
       height="20.656538"
       x="63.367565"
       y="125.85839" /></g><g
     inkscape:label="sunrise"
     inkscape:groupmode="layer"
     id="g72"
     transform="translate(-63.112499,-99.144997)"><rect
       style="fill:#262626;fill-opacity:1;stroke:none;stroke-width:0;stroke-dasharray:none"
       id="rect59"
       width="79.375"
       height="21.166666"
       x="0"
       y="0"
       transform="translate(63.112499,125.60333)" /><text
       xml:space="preserve"
       style="font-size:9.525px;line-height:0;font-family:'DejaVu Math TeX Gyre';-inkscape-font-specification:'DejaVu Math TeX Gyre';text-align:start;writing-mode:lr-tb;direction:ltr;text-anchor:start;fill:none;stroke:#000000;stroke-width:0.132292"
       x="89.249924"
       y="139.57251"
       id="text59"
       inkscape:transform-center-x="-0.0928125"
       inkscape:transform-center-y="0.48726563"><tspan
         sodipodi:role="line"
         id="tspan59"
         style="font-style:normal;font-variant:normal;font-weight:bold;font-stretch:normal;font-size:9.525px;line-height:0;font-family:Roboto;-inkscape-font-specification:'Roboto Bold';text-align:start;text-anchor:start;fill:#ffffff;fill-opacity:1;stroke:none;stroke-width:0.132292"
         x="89.249924"
         y="139.57251">Sunrise</tspan></text><g
       id="g71"
       transform="matrix(0.06170511,0,0,0.06057664,66.397766,129.23368)"><path
         class="cls-1"
         d="m 72.27,162.51 c 0,-49.26 39.93,-89.19 89.19,-89.19 49.26,0 89.19,39.93 89.19,89.19 z"
         id="path60"
         style="fill:none;stroke:#ffffff;stroke-width:8.29595;stroke-dasharray:none" /><line
         class="cls-1"
         x1="161.46001"
         y1="48.209999"
         x2="161.46001"
         y2="3.5699999"
         id="line60"
         style="stroke:#ffffff;stroke-width:8.29595;stroke-dasharray:none" /><line
         class="cls-1"
         x1="85.099998"
         y1="77.519997"
         x2="55.23"
         y2="44.349998"
         id="line61"
         style="stroke:#ffffff;stroke-width:8.29595;stroke-dasharray:none" /><line
         class="cls-1"
         x1="47.970001"
         y1="150.39999"
         x2="3.5699999"
         y2="145.74001"
         id="line62"
         style="stroke:#ffffff;stroke-width:8.29595;stroke-dasharray:none" /><line
         class="cls-1"
         x1="120.56"
         y1="55.790001"
         x2="111.05"
         y2="30.99"
         id="line63"
         style="stroke:#ffffff;stroke-width:8.29595;stroke-dasharray:none" /><line
         class="cls-1"
         x1="59.779999"
         y1="110.52"
         x2="36.110001"
         y2="98.459999"
         id="line64"
         style="stroke:#ffffff;stroke-width:8.29595;stroke-dasharray:none" /><line
         class="cls-1"
         x1="237.82001"
         y1="77.519997"
         x2="267.70001"
         y2="44.349998"
         id="line65"
         style="stroke:#ffffff;stroke-width:8.29595;stroke-dasharray:none" /><line
         class="cls-1"
         x1="274.95999"
         y1="150.39999"
         x2="319.35999"
         y2="145.74001"
         id="line66"
         style="stroke:#ffffff;stroke-width:8.29595;stroke-dasharray:none" /><line
         class="cls-1"
         x1="202.36"
         y1="55.790001"
         x2="211.88"
         y2="30.99"
         id="line67"
         style="stroke:#ffffff;stroke-width:8.29595;stroke-dasharray:none" /><line
         class="cls-1"
         x1="263.14001"
         y1="110.52"
         x2="286.81"
         y2="98.459999"
         id="line68"
         style="stroke:#ffffff;stroke-width:8.29595;stroke-dasharray:none" /><line
         class="cls-1"
         x1="47.950001"
         y1="183.67"
         x2="274.98001"
         y2="183.67"
         id="line69"
         style="stroke:#ffffff;stroke-width:8.29595;stroke-dasharray:none" /><line
         class="cls-1"
         x1="72.269997"
         y1="204.82001"
         x2="250.64999"
         y2="204.82001"
         id="line70"
         style="stroke:#ffffff;stroke-width:8.29595;stroke-dasharray:none" /><line
         class="cls-1"
         x1="226.32001"
         y1="225.99001"
         x2="96.589996"
         y2="225.99001"
         id="line71"
         style="stroke:#ffffff;stroke-width:8.29595;stroke-dasharray:none" /></g><rect
       style="display:none;fill:none;fill-opacity:1;stroke:#ffffff;stroke-width:0.510129;stroke-dasharray:none;stroke-opacity:1"
       id="rect85"
       width="25.948204"
       height="20.656538"
       x="63.386574"
       y="152.50664"
       transform="translate(-2.8333333e-6,-26.458334)" /></g><g
     inkscape:label="dhuhr"
     inkscape:groupmode="layer"
     id="g85"
     transform="translate(-63.112499,-72.686663)"><rect
       style="fill:#262626;fill-opacity:1;stroke:none;stroke-width:0;stroke-dasharray:none"
       id="rect72"
       width="79.375"
       height="21.166666"
       x="0"
       y="0"
       transform="translate(63.112499,125.60333)" /><text
       xml:space="preserve"
       style="font-size:9.525px;line-height:0;font-family:'DejaVu Math TeX Gyre';-inkscape-font-specification:'DejaVu Math TeX Gyre';text-align:start;writing-mode:lr-tb;direction:ltr;text-anchor:start;fill:none;stroke:#000000;stroke-width:0.132292"
       x="88.966217"
       y="139.526"
       id="text72"
       inkscape:transform-center-x="-0.0928125"
       inkscape:transform-center-y="0.48726563"><tspan
         sodipodi:role="line"
         id="tspan72"
         style="font-style:normal;font-variant:normal;font-weight:bold;font-stretch:normal;font-size:9.525px;line-height:0;font-family:Roboto;-inkscape-font-specification:'Roboto Bold';text-align:start;text-anchor:start;fill:#ffffff;fill-opacity:1;stroke:none;stroke-width:0.132292"
         x="88.966217"
         y="139.526">Dhuhr</tspan></text><g
       id="g25"
       transform="matrix(0.25135416,0,0,0.25135416,-15.579959,44.245719)"><path
         d="m 365.78,337.19464 c -0.56318,0 -1.01854,-0.45651 -1.01854,-1.01854 v -7.34424 c 0,-0.56203 0.45651,-1.01854 1.01854,-1.01854 0.56203,0 1.01854,0.45651 1.01854,1.01854 v 7.34309 c 0,0.56203 -0.45651,1.01854 -1.01854,1.01854 z"
         id="path2"
         style="display:inline;fill:#ffffff;fill-opacity:1;stroke:none;stroke-width:2.1793;stroke-linecap:round;stroke-linejoin:round;stroke-dasharray:none;stroke-opacity:1;paint-order:stroke markers fill"
         inkscape:tile-cx="41.95441"
         inkscape:tile-cy="8.67593"
         inkscape:tile-w="2.03708"
         inkscape:tile-h="9.38132"
         inkscape:tile-x0="40.93587"
         inkscape:tile-y0="3.98527"
         inkscape:transform-center-x="-1.2207031e-06"
         inkscape:transform-center-y="-33.278491" /><g
         id="g131"
         inkscape:transform-center-y="-32.265039"
         style="display:inline;fill:none;stroke:#ffffff;stroke-width:2.389;stroke-linecap:round;stroke-linejoin:round;stroke-dasharray:none;stroke-opacity:1"
         transform="matrix(0.92447,0,0,0.92447,27.627363,27.627551)"><g
           id="g130"
           inkscape:transform-center-y="-34.901394"
           style="fill:none;stroke:#ffffff;stroke-width:2.389;stroke-linecap:round;stroke-linejoin:round;stroke-dasharray:none;stroke-opacity:1"><g
             id="g97"
             inkscape:transform-center-y="-34.901394"
             style="fill:none;stroke:#ffffff;stroke-width:2.389;stroke-linecap:round;stroke-linejoin:round;stroke-dasharray:none;stroke-opacity:1"><g
               id="g96"
               style="fill:none;stroke:#ffffff;stroke-width:2.389;stroke-linecap:round;stroke-linejoin:round;stroke-dasharray:none;stroke-opacity:1"><path
                 style="opacity:1;fill:none;fill-opacity:1;stroke:#ffffff;stroke-width:2.389;stroke-linecap:round;stroke-linejoin:round;stroke-dasharray:none;stroke-opacity:1;paint-order:stroke markers fill"
                 d="M 365.78,336.06444 V 325.69825"
                 id="path85"
                 inkscape:transform-center-y="-34.901394" /></g></g></g></g><circle
         style="opacity:1;fill:none;fill-opacity:1;stroke:#ffffff;stroke-width:1.65753;stroke-linecap:round;stroke-linejoin:round;stroke-dasharray:none;stroke-opacity:1;paint-order:stroke markers fill"
         id="path142"
         cx="365.78"
         cy="365.78247"
         r="22.084686" /><g
         id="g192"
         inkscape:transform-center-y="-27.942341"
         transform="matrix(0.80061451,0.462235,-0.462235,0.80061451,242.00869,-96.144598)"
         inkscape:transform-center-x="-16.132526"
         style="fill:none;stroke:#ffffff;stroke-opacity:1"><g
           id="g191"
           inkscape:transform-center-y="-34.901394"
           style="fill:none;stroke:#ffffff;stroke-opacity:1"><g
             id="g190"
             inkscape:transform-center-y="-34.901394"
             style="fill:none;stroke:#ffffff;stroke-opacity:1"><g
               id="g189"
               style="fill:none;stroke:#ffffff;stroke-opacity:1"><path
                 style="opacity:1;fill:none;fill-opacity:1;stroke:#ffffff;stroke-width:2.38908;stroke-linecap:round;stroke-linejoin:round;stroke-dasharray:none;stroke-opacity:1;paint-order:stroke markers fill"
                 d="M 365.78,336.06444 V 325.69825"
                 id="path189"
                 inkscape:transform-center-y="-34.901394" /></g></g></g></g><g
         id="g196"
         inkscape:transform-center-y="-16.132515"
         transform="matrix(0.462235,0.80061451,-0.80061451,0.462235,489.55443,-96.143762)"
         inkscape:transform-center-x="-27.942342"
         style="fill:none;stroke:#ffffff;stroke-opacity:1"><g
           id="g195"
           inkscape:transform-center-y="-34.901394"
           style="fill:none;stroke:#ffffff;stroke-opacity:1"><g
             id="g194"
             inkscape:transform-center-y="-34.901394"
             style="fill:none;stroke:#ffffff;stroke-opacity:1"><g
               id="g193"
               style="fill:none;stroke:#ffffff;stroke-opacity:1"><path
                 style="opacity:1;fill:none;fill-opacity:1;stroke:#ffffff;stroke-width:2.38908;stroke-linecap:round;stroke-linejoin:round;stroke-dasharray:none;stroke-opacity:1;paint-order:stroke markers fill"
                 d="M 365.78,336.06444 V 325.69825"
                 id="path192"
                 inkscape:transform-center-y="-34.901394" /></g></g></g></g><g
         id="g200"
         inkscape:transform-center-y="4.2375126e-06"
         transform="matrix(0,0.92447,-0.92447,0,703.93492,27.629835)"
         inkscape:transform-center-x="-32.265042"
         style="fill:none;stroke:#ffffff;stroke-opacity:1"><g
           id="g199"
           inkscape:transform-center-y="-34.901394"
           style="fill:none;stroke:#ffffff;stroke-opacity:1"><g
             id="g198"
             inkscape:transform-center-y="-34.901394"
             style="fill:none;stroke:#ffffff;stroke-opacity:1"><g
               id="g197"
               style="fill:none;stroke:#ffffff;stroke-opacity:1"><path
                 style="opacity:1;fill:none;fill-opacity:1;stroke:#ffffff;stroke-width:2.38908;stroke-linecap:round;stroke-linejoin:round;stroke-dasharray:none;stroke-opacity:1;paint-order:stroke markers fill"
                 d="M 365.78,336.06444 V 325.69825"
                 id="path196"
                 inkscape:transform-center-y="-34.901394" /></g></g></g></g><g
         id="g204"
         inkscape:transform-center-y="16.13253"
         transform="matrix(-0.462235,0.80061451,-0.80061451,-0.462235,827.70707,242.01116)"
         inkscape:transform-center-x="-27.942345"
         style="fill:none;stroke:#ffffff;stroke-opacity:1"><g
           id="g203"
           inkscape:transform-center-y="-34.901394"
           style="fill:none;stroke:#ffffff;stroke-opacity:1"><g
             id="g202"
             inkscape:transform-center-y="-34.901394"
             style="fill:none;stroke:#ffffff;stroke-opacity:1"><g
               id="g201"
               style="fill:none;stroke:#ffffff;stroke-opacity:1"><path
                 style="opacity:1;fill:none;fill-opacity:1;stroke:#ffffff;stroke-width:2.38908;stroke-linecap:round;stroke-linejoin:round;stroke-dasharray:none;stroke-opacity:1;paint-order:stroke markers fill"
                 d="M 365.78,336.06444 V 325.69825"
                 id="path200"
                 inkscape:transform-center-y="-34.901394" /></g></g></g></g><g
         id="g208"
         inkscape:transform-center-y="27.942345"
         transform="matrix(-0.80061451,0.462235,-0.462235,-0.80061451,827.70623,489.5569)"
         inkscape:transform-center-x="-16.132516"
         style="fill:none;stroke:#ffffff;stroke-opacity:1"><g
           id="g207"
           inkscape:transform-center-y="-34.901394"
           style="fill:none;stroke:#ffffff;stroke-opacity:1"><g
             id="g206"
             inkscape:transform-center-y="-34.901394"
             style="fill:none;stroke:#ffffff;stroke-opacity:1"><g
               id="g205"
               style="fill:none;stroke:#ffffff;stroke-opacity:1"><path
                 style="opacity:1;fill:none;fill-opacity:1;stroke:#ffffff;stroke-width:2.38908;stroke-linecap:round;stroke-linejoin:round;stroke-dasharray:none;stroke-opacity:1;paint-order:stroke markers fill"
                 d="M 365.78,336.06444 V 325.69825"
                 id="path204"
                 inkscape:transform-center-y="-34.901394" /></g></g></g></g><g
         id="g212"
         inkscape:transform-center-y="32.265045"
         transform="matrix(-0.92447,0,0,-0.92447,703.93264,703.93739)"
         style="fill:none;stroke:#ffffff;stroke-opacity:1"
         inkscape:transform-center-x="-3.4e-06"><g
           id="g211"
           inkscape:transform-center-y="-34.901394"
           style="fill:none;stroke:#ffffff;stroke-opacity:1"><g
             id="g210"
             inkscape:transform-center-y="-34.901394"
             style="fill:none;stroke:#ffffff;stroke-opacity:1"><g
               id="g209"
               style="fill:none;stroke:#ffffff;stroke-opacity:1"><path
                 style="opacity:1;fill:none;fill-opacity:1;stroke:#ffffff;stroke-width:2.38908;stroke-linecap:round;stroke-linejoin:round;stroke-dasharray:none;stroke-opacity:1;paint-order:stroke markers fill"
                 d="M 365.78,336.06444 V 325.69825"
                 id="path208"
                 inkscape:transform-center-y="-34.901394" /></g></g></g></g><g
         id="g216"
         inkscape:transform-center-y="27.942348"
         transform="matrix(-0.80061451,-0.462235,0.462235,-0.80061451,489.55131,827.70954)"
         inkscape:transform-center-x="16.132526"
         style="fill:none;stroke:#ffffff;stroke-opacity:1"><g
           id="g215"
           inkscape:transform-center-y="-34.901394"
           style="fill:none;stroke:#ffffff;stroke-opacity:1"><g
             id="g214"
             inkscape:transform-center-y="-34.901394"
             style="fill:none;stroke:#ffffff;stroke-opacity:1"><g
               id="g213"
               style="fill:none;stroke:#ffffff;stroke-opacity:1"><path
                 style="opacity:1;fill:none;fill-opacity:1;stroke:#ffffff;stroke-width:2.38908;stroke-linecap:round;stroke-linejoin:round;stroke-dasharray:none;stroke-opacity:1;paint-order:stroke markers fill"
                 d="M 365.78,336.06444 V 325.69825"
                 id="path212"
                 inkscape:transform-center-y="-34.901394" /></g></g></g></g><g
         id="g220"
         inkscape:transform-center-y="16.132529"
         transform="matrix(-0.462235,-0.80061451,0.80061451,-0.462235,242.00557,827.70871)"
         inkscape:transform-center-x="27.942342"
         style="fill:none;stroke:#ffffff;stroke-opacity:1"><g
           id="g219"
           inkscape:transform-center-y="-34.901394"
           style="fill:none;stroke:#ffffff;stroke-opacity:1"><g
             id="g218"
             inkscape:transform-center-y="-34.901394"
             style="fill:none;stroke:#ffffff;stroke-opacity:1"><g
               id="g217"
               style="fill:none;stroke:#ffffff;stroke-opacity:1"><path
                 style="opacity:1;fill:none;fill-opacity:1;stroke:#ffffff;stroke-width:2.38908;stroke-linecap:round;stroke-linejoin:round;stroke-dasharray:none;stroke-opacity:1;paint-order:stroke markers fill"
                 d="M 365.78,336.06444 V 325.69825"
                 id="path216"
                 inkscape:transform-center-y="-34.901394" /></g></g></g></g><g
         id="g224"
         inkscape:transform-center-y="6.0574147e-06"
         transform="matrix(0,-0.92447,0.92447,0,27.62508,703.93511)"
         inkscape:transform-center-x="32.265042"
         style="fill:none;stroke:#ffffff;stroke-opacity:1"><g
           id="g223"
           inkscape:transform-center-y="-34.901394"
           style="fill:none;stroke:#ffffff;stroke-opacity:1"><g
             id="g222"
             inkscape:transform-center-y="-34.901394"
             style="fill:none;stroke:#ffffff;stroke-opacity:1"><g
               id="g221"
               style="fill:none;stroke:#ffffff;stroke-opacity:1"><path
                 style="opacity:1;fill:none;fill-opacity:1;stroke:#ffffff;stroke-width:2.38908;stroke-linecap:round;stroke-linejoin:round;stroke-dasharray:none;stroke-opacity:1;paint-order:stroke markers fill"
                 d="M 365.78,336.06444 V 325.69825"
                 id="path220"
                 inkscape:transform-center-y="-34.901394" /></g></g></g></g><g
         id="g228"
         inkscape:transform-center-y="-16.132514"
         transform="matrix(0.462235,-0.80061451,0.80061451,0.462235,-96.147069,489.55379)"
         inkscape:transform-center-x="27.942344"
         style="fill:none;stroke:#ffffff;stroke-opacity:1"><g
           id="g227"
           inkscape:transform-center-y="-34.901394"
           style="fill:none;stroke:#ffffff;stroke-opacity:1"><g
             id="g226"
             inkscape:transform-center-y="-34.901394"
             style="fill:none;stroke:#ffffff;stroke-opacity:1"><g
               id="g225"
               style="fill:none;stroke:#ffffff;stroke-opacity:1"><path
                 style="opacity:1;fill:none;fill-opacity:1;stroke:#ffffff;stroke-width:2.38908;stroke-linecap:round;stroke-linejoin:round;stroke-dasharray:none;stroke-opacity:1;paint-order:stroke markers fill"
                 d="M 365.78,336.06444 V 325.69825"
                 id="path224"
                 inkscape:transform-center-y="-34.901394" /></g></g></g></g><g
         id="g232"
         inkscape:transform-center-y="-27.942339"
         transform="matrix(0.80061451,-0.462235,0.462235,0.80061451,-96.146234,242.00804)"
         inkscape:transform-center-x="16.13252"
         style="fill:none;stroke:#ffffff;stroke-opacity:1"><g
           id="g231"
           inkscape:transform-center-y="-34.901394"
           style="fill:none;stroke:#ffffff;stroke-opacity:1"><g
             id="g230"
             inkscape:transform-center-y="-34.901394"
             style="fill:none;stroke:#ffffff;stroke-opacity:1"><g
               id="g229"
               style="fill:none;stroke:#ffffff;stroke-opacity:1"><path
                 style="opacity:1;fill:none;fill-opacity:1;stroke:#ffffff;stroke-width:2.38908;stroke-linecap:round;stroke-linejoin:round;stroke-dasharray:none;stroke-opacity:1;paint-order:stroke markers fill"
                 d="M 365.78,336.06444 V 325.69825"
                 id="path228"
                 inkscape:transform-center-y="-34.901394" /></g></g></g></g><path
         style="opacity:1;fill:none;fill-opacity:1;stroke:#ffffff;stroke-width:2.15283;stroke-linecap:round;stroke-linejoin:round;stroke-dasharray:none;stroke-opacity:1;paint-order:stroke markers fill"
         d="m 372.89514,339.22841 1.69828,-6.33805"
         id="path242"
         inkscape:transform-center-x="-7.9642811"
         inkscape:transform-center-y="-29.723087" /><path
         style="opacity:1;fill:none;fill-opacity:1;stroke:#ffffff;stroke-width:2.15283;stroke-linecap:round;stroke-linejoin:round;stroke-dasharray:none;stroke-opacity:1;paint-order:stroke markers fill"
         d="m 385.21892,346.34355 4.63978,-4.63978"
         id="path247"
         inkscape:transform-center-x="-21.758811"
         inkscape:transform-center-y="-21.758812" /><path
         style="opacity:1;fill:none;fill-opacity:1;stroke:#ffffff;stroke-width:2.15283;stroke-linecap:round;stroke-linejoin:round;stroke-dasharray:none;stroke-opacity:1;paint-order:stroke markers fill"
         d="m 392.33406,358.66733 6.33806,-1.69827"
         id="path248"
         inkscape:transform-center-x="-29.723091"
         inkscape:transform-center-y="-7.9642774" /><path
         style="opacity:1;fill:none;fill-opacity:1;stroke:#ffffff;stroke-width:2.15283;stroke-linecap:round;stroke-linejoin:round;stroke-dasharray:none;stroke-opacity:1;paint-order:stroke markers fill"
         d="m 392.33406,372.89761 6.33806,1.69828"
         id="path249"
         inkscape:transform-center-x="-29.723091"
         inkscape:transform-center-y="7.9642776" /><path
         style="opacity:1;fill:none;fill-opacity:1;stroke:#ffffff;stroke-width:2.15283;stroke-linecap:round;stroke-linejoin:round;stroke-dasharray:none;stroke-opacity:1;paint-order:stroke markers fill"
         d="m 385.21892,385.22139 4.63978,4.63978"
         id="path250"
         inkscape:transform-center-x="-21.758811"
         inkscape:transform-center-y="21.758808" /><path
         style="opacity:1;fill:none;fill-opacity:1;stroke:#ffffff;stroke-width:2.15283;stroke-linecap:round;stroke-linejoin:round;stroke-dasharray:none;stroke-opacity:1;paint-order:stroke markers fill"
         d="m 372.89514,392.33653 1.69828,6.33806"
         id="path251"
         inkscape:transform-center-x="-7.9642809"
         inkscape:transform-center-y="29.723088" /><path
         style="opacity:1;fill:none;fill-opacity:1;stroke:#ffffff;stroke-width:2.15283;stroke-linecap:round;stroke-linejoin:round;stroke-dasharray:none;stroke-opacity:1;paint-order:stroke markers fill"
         d="m 358.66486,392.33653 -1.69828,6.33806"
         id="path252"
         inkscape:transform-center-x="7.9642791"
         inkscape:transform-center-y="29.723088" /><path
         style="opacity:1;fill:none;fill-opacity:1;stroke:#ffffff;stroke-width:2.15283;stroke-linecap:round;stroke-linejoin:round;stroke-dasharray:none;stroke-opacity:1;paint-order:stroke markers fill"
         d="m 346.34108,385.22139 -4.63978,4.63978"
         id="path253"
         inkscape:transform-center-x="21.758809"
         inkscape:transform-center-y="21.758808" /><path
         style="opacity:1;fill:none;fill-opacity:1;stroke:#ffffff;stroke-width:2.15283;stroke-linecap:round;stroke-linejoin:round;stroke-dasharray:none;stroke-opacity:1;paint-order:stroke markers fill"
         d="m 339.22594,372.89761 -6.33806,1.69828"
         id="path254"
         inkscape:transform-center-x="29.723089"
         inkscape:transform-center-y="7.9642776" /><path
         style="opacity:1;fill:none;fill-opacity:1;stroke:#ffffff;stroke-width:2.15283;stroke-linecap:round;stroke-linejoin:round;stroke-dasharray:none;stroke-opacity:1;paint-order:stroke markers fill"
         d="m 339.22594,358.66733 -6.33806,-1.69827"
         id="path255"
         inkscape:transform-center-x="29.723089"
         inkscape:transform-center-y="-7.9642774" /><path
         style="opacity:1;fill:none;fill-opacity:1;stroke:#ffffff;stroke-width:2.15283;stroke-linecap:round;stroke-linejoin:round;stroke-dasharray:none;stroke-opacity:1;paint-order:stroke markers fill"
         d="m 346.34108,346.34355 -4.63978,-4.63978"
         id="path256"
         inkscape:transform-center-x="21.758809"
         inkscape:transform-center-y="-21.758812" /><path
         style="opacity:1;fill:none;fill-opacity:1;stroke:#ffffff;stroke-width:2.15283;stroke-linecap:round;stroke-linejoin:round;stroke-dasharray:none;stroke-opacity:1;paint-order:stroke markers fill"
         d="m 358.66486,339.22841 -1.69828,-6.33805"
         id="path257"
         inkscape:transform-center-x="7.9642791"
         inkscape:transform-center-y="-29.723087" /></g><rect
       style="display:none;fill:none;fill-opacity:1;stroke:#ffffff;stroke-width:0.510129;stroke-dasharray:none;stroke-opacity:1"
       id="rect73"
       width="25.948204"
       height="20.656538"
       x="63.367565"
       y="125.85839" /></g><g
     inkscape:groupmode="layer"
     id="layer3"
     inkscape:label="asr"><rect
       style="fill:#262626;fill-opacity:1;stroke:none;stroke-width:0;stroke-dasharray:none"
       id="rect86"
       width="79.375"
       height="21.166666"
       x="2.3706055e-07"
       y="79.375" /><text
       xml:space="preserve"
       style="font-size:9.525px;line-height:0;font-family:'DejaVu Math TeX Gyre';-inkscape-font-specification:'DejaVu Math TeX Gyre';text-align:start;writing-mode:lr-tb;direction:ltr;text-anchor:start;fill:none;stroke:#000000;stroke-width:0.132292"
       x="26.425777"
       y="93.34417"
       id="text86"
       inkscape:transform-center-x="-0.0928125"
       inkscape:transform-center-y="0.48726563"><tspan
         sodipodi:role="line"
         id="tspan86"
         style="font-style:normal;font-variant:normal;font-weight:bold;font-stretch:normal;font-size:9.525px;line-height:0;font-family:Roboto;-inkscape-font-specification:'Roboto Bold';text-align:start;text-anchor:start;fill:#ffffff;fill-opacity:1;stroke:none;stroke-width:0.132292"
         x="26.425777"
         y="93.34417">Asr</tspan></text><g
       id="g151"
       transform="matrix(0.26458333,0,0,0.26458333,4.3640446,83.22828)"
       style="fill:#ffffff;fill-opacity:1"><path
         class="cls-1"
         d="M 60.68732,45.95758 H 4.2218 c -0.53506,0 -0.96751,-0.43304 -0.96751,-0.96751 0,-0.53447 0.43304,-0.96751 0.96751,-0.96751 h 56.46552 c 0.53507,0 0.96751,0.43304 0.96751,0.96751 0,0.53447 -0.43303,0.96751 -0.96751,0.96751 z"
         id="path1"
         style="fill:#ffffff;fill-opacity:1;stroke-width:0.05932" /><path
         class="cls-1"
         d="M 55.20497,50.87284 H 9.70475 c -0.53507,0 -0.96751,-0.43304 -0.96751,-0.96751 0,-0.53448 0.43304,-0.96751 0.96751,-0.96751 h 45.50022 c 0.53507,0 0.96751,0.43303 0.96751,0.96751 0,0.53447 -0.43304,0.96751 -0.96751,0.96751 z"
         id="path2-7"
         style="fill:#ffffff;fill-opacity:1;stroke-width:0.05932" /><path
         class="cls-1"
         d="M 7.12492,33.42149 H 0.96751 C 0.43244,33.42149 0,32.98845 0,32.45398 0,31.9195 0.43303,31.48647 0.96751,31.48647 h 6.15741 c 0.53507,0 0.96751,0.43303 0.96751,0.96751 0,0.53447 -0.43303,0.96751 -0.96751,0.96751 z"
         id="path3"
         style="fill:#ffffff;fill-opacity:1;stroke-width:0.05932" /><path
         class="cls-1"
         d="m 63.94221,33.42149 h -6.15919 c -0.53507,0 -0.96751,-0.43304 -0.96751,-0.96751 0,-0.53448 0.43303,-0.96751 0.96751,-0.96751 h 6.15919 c 0.53507,0 0.96751,0.43303 0.96751,0.96751 0,0.53447 -0.43303,0.96751 -0.96751,0.96751 z"
         id="path4"
         style="fill:#ffffff;fill-opacity:1;stroke-width:0.05932" /><path
         class="cls-1"
         d="m 54.39051,20.75904 c -0.33279,0 -0.65964,-0.17381 -0.83701,-0.48405 -0.26813,-0.46329 -0.10974,-1.05471 0.35355,-1.32106 l 5.33346,-3.08049 c 0.45914,-0.2705 1.05471,-0.11152 1.32106,0.35355 0.26812,0.46329 0.10974,1.05471 -0.35355,1.32106 l -5.33346,3.08048 c -0.15305,0.089 -0.31914,0.13051 -0.48405,0.13051 z"
         id="path5"
         style="fill:#ffffff;fill-opacity:1;stroke-width:0.05932" /><path
         class="cls-1"
         d="m 45.1182,11.48673 c -0.16432,0 -0.33101,-0.0415 -0.48405,-0.13051 -0.46329,-0.26634 -0.62168,-0.85776 -0.35355,-1.32105 l 3.08049,-5.33346 c 0.26634,-0.46329 0.86014,-0.6199 1.32105,-0.35355 0.46329,0.26635 0.62168,0.85777 0.35355,1.32106 l -3.08049,5.33346 c -0.17736,0.31024 -0.50481,0.48405 -0.837,0.48405 z"
         id="path6"
         style="fill:#ffffff;fill-opacity:1;stroke-width:0.05932" /><path
         class="cls-1"
         d="m 32.45397,8.09481 c -0.53507,0 -0.96751,-0.43303 -0.96751,-0.96751 V 0.96751 C 31.48646,0.43245 31.9195,0 32.45397,0 c 0.53447,0 0.96751,0.43304 0.96751,0.96751 v 6.1592 c 0,0.53507 -0.43304,0.96751 -0.96751,0.96751 z"
         id="path7"
         style="fill:#ffffff;fill-opacity:1;stroke-width:0.05932" /><path
         class="cls-1"
         d="m 19.78915,11.48673 c -0.33279,0 -0.65964,-0.17381 -0.837,-0.48405 L 15.87344,5.66922 C 15.60531,5.20593 15.7637,4.61451 16.22698,4.34816 16.6879,4.08003 17.28169,4.23842 17.54804,4.70171 l 3.07871,5.33346 c 0.26813,0.46329 0.10974,1.05471 -0.35355,1.32105 -0.15304,0.089 -0.31914,0.13051 -0.48405,0.13051 z"
         id="path8"
         style="fill:#ffffff;fill-opacity:1;stroke-width:0.05932" /><path
         class="cls-1"
         d="m 10.51921,20.75904 c -0.16431,0 -0.331,-0.0415 -0.48405,-0.13051 L 4.7017,17.54805 C 4.23841,17.2817 4.08003,16.69028 4.34815,16.22699 4.6145,15.7637 5.21007,15.60532 5.66921,15.87344 l 5.33346,3.08049 c 0.46329,0.26635 0.62168,0.85777 0.35355,1.32106 -0.17737,0.31024 -0.50481,0.48405 -0.83701,0.48405 z"
         id="path9"
         style="fill:#ffffff;fill-opacity:1;stroke-width:0.05932" /><path
         class="cls-1"
         d="m 50.41785,38.4447 c -0.0872,0 -0.17559,-0.0113 -0.26279,-0.0362 -0.51431,-0.14534 -0.81447,-0.6804 -0.66913,-1.19471 0.44253,-1.56486 0.66735,-3.16591 0.66735,-4.76102 0,-9.75755 -7.93939,-17.69753 -17.69931,-17.69753 -9.75992,0 -17.69753,7.93939 -17.69753,17.69753 0,1.59511 0.22482,3.19616 0.66735,4.76102 0.14534,0.51431 -0.15482,1.04878 -0.66913,1.19471 -0.50837,0.14948 -1.047,-0.15483 -1.1947,-0.66913 -0.48939,-1.73511 -0.73913,-3.51353 -0.73913,-5.28601 0,-10.8253 8.80724,-19.63254 19.63255,-19.63254 10.8253,0 19.63432,8.80724 19.63432,19.63254 0,1.77248 -0.24973,3.5509 -0.73912,5.28601 -0.12102,0.4271 -0.50838,0.70472 -0.93192,0.70472 z"
         id="path10"
         style="fill:#ffffff;fill-opacity:1;stroke-width:0.05932" /></g><rect
       style="display:none;fill:none;fill-opacity:1;stroke:#ffffff;stroke-width:0.510129;stroke-dasharray:none;stroke-opacity:1"
       id="rect151"
       width="25.948204"
       height="20.656538"
       x="0.25506473"
       y="79.630066" /></g><g
     inkscape:groupmode="layer"
     id="layer4"
     inkscape:label="maghrib"><rect
       style="fill:#262626;fill-opacity:1;stroke:none;stroke-width:0;stroke-dasharray:none"
       id="rect152"
       width="79.375"
       height="21.166666"
       x="2.3706055e-07"
       y="105.83334" /><text
       xml:space="preserve"
       style="font-size:9.525px;line-height:0;font-family:'DejaVu Math TeX Gyre';-inkscape-font-specification:'DejaVu Math TeX Gyre';text-align:start;writing-mode:lr-tb;direction:ltr;text-anchor:start;fill:none;stroke:#000000;stroke-width:0.132292"
       x="25.85372"
       y="119.80484"
       id="text152"
       inkscape:transform-center-x="-0.0928125"
       inkscape:transform-center-y="0.48726563"><tspan
         sodipodi:role="line"
         id="tspan152"
         style="font-style:normal;font-variant:normal;font-weight:bold;font-stretch:normal;font-size:9.525px;line-height:0;font-family:Roboto;-inkscape-font-specification:'Roboto Bold';text-align:start;text-anchor:start;fill:#ffffff;fill-opacity:1;stroke:none;stroke-width:0.132292"
         x="25.85372"
         y="119.80484">Maghrib</tspan></text><g
       id="g7"
       style="display:inline;fill:#ffffff;fill-opacity:1"
       transform="matrix(0.02002057,0,0,0.02002057,7.1666579,110.49339)"><path
         d="m 302.62,17.76 c 24.84,0 49.72,3.29 73.95,9.79 70.89,19 131.02,63.92 169.31,126.5 35.64,58.25 49.09,126.33 38.46,193.18 H 21.23 c -6.27,-39.39 -4.16,-79.07 6.31,-118.16 8.35,-31.16 21.7,-60.34 39.68,-86.73 17.38,-25.51 38.73,-47.94 63.46,-66.65 24.49,-18.53 51.64,-32.93 80.69,-42.8 29.5,-10.02 60.2,-15.11 91.24,-15.11 M 302.62,0 C 168.95,0 46.63,89.2 10.39,224.46 -2.35,271.99 -3.03,319.91 6.46,364.98 H 599.11 C 632.04,208.72 537.28,52.22 381.17,10.39 354.93,3.36 328.56,0 302.63,0 v 0 z"
         id="path1-8"
         style="fill:#ffffff;fill-opacity:1" /><path
         d="m 594.93,384.51 c -1.67,6 -3.52,11.92 -5.54,17.76 H 16.22 c -2.04,-5.85 -3.9,-11.77 -5.58,-17.76 z"
         id="path2-8"
         style="fill:#ffffff;fill-opacity:1" /><path
         d="m 581.64,422.4 c -2.57,6.03 -5.32,11.95 -8.26,17.76 H 32.37 C 29.39,434.33 26.62,428.4 24.05,422.4 Z"
         id="path3-4"
         style="fill:#ffffff;fill-opacity:1" /><path
         d="m 562.23,460.29 c -3.67,6.06 -7.55,11.99 -11.63,17.76 H 55.22 c -4.1,-5.79 -7.98,-11.71 -11.66,-17.76 z"
         id="path4-3"
         style="fill:#ffffff;fill-opacity:1" /><path
         d="m 535.06,498.18 c -5.16,6.13 -10.57,12.05 -16.23,17.76 H 86.93 c -2.07,-2.08 -4.11,-4.2 -6.11,-6.36 -3.46,-3.72 -6.82,-7.52 -10.08,-11.4 h 464.31 z"
         id="path5-1"
         style="fill:#ffffff;fill-opacity:1" /><path
         d="m 496.82,536.07 c -7.57,6.28 -15.46,12.2 -23.68,17.76 H 132.43 c -8.15,-5.52 -16.03,-11.45 -23.61,-17.76 z"
         id="path6-4"
         style="fill:#ffffff;fill-opacity:1" /><path
         d="m 438.8,573.96 c -14.04,7.08 -28.5,13 -43.24,17.76 H 210.41 c -15.04,-4.8 -29.63,-10.74 -43.62,-17.76 z"
         id="path7-9"
         style="fill:#ffffff;fill-opacity:1" /></g><rect
       style="display:none;fill:none;fill-opacity:1;stroke:#ffffff;stroke-width:0.510129;stroke-dasharray:none;stroke-opacity:1"
       id="rect169"
       width="25.948204"
       height="20.656538"
       x="0.25506473"
       y="106.08841" /></g><g
     inkscape:groupmode="layer"
     id="layer5"
     inkscape:label="isha"><rect
       style="fill:#262626;fill-opacity:1;stroke:none;stroke-width:0;stroke-dasharray:none"
       id="rect162"
       width="79.375"
       height="21.166666"
       x="2.3706055e-07"
       y="132.29167" /><text
       xml:space="preserve"
       style="font-size:9.525px;line-height:0;font-family:'DejaVu Math TeX Gyre';-inkscape-font-specification:'DejaVu Math TeX Gyre';text-align:start;writing-mode:lr-tb;direction:ltr;text-anchor:start;fill:none;stroke:#000000;stroke-width:0.132292"
       x="25.760702"
       y="146.26085"
       id="text162"
       inkscape:transform-center-x="-0.0928125"
       inkscape:transform-center-y="0.48726563"><tspan
         sodipodi:role="line"
         id="tspan162"
         style="font-style:normal;font-variant:normal;font-weight:bold;font-stretch:normal;font-size:9.525px;line-height:0;font-family:Roboto;-inkscape-font-specification:'Roboto Bold';text-align:start;text-anchor:start;fill:#ffffff;fill-opacity:1;stroke:none;stroke-width:0.132292"
         x="25.760702"
         y="146.26085">Isha</tspan></text><g
       id="g4"
       style="fill:#ffffff;fill-opacity:1"
       transform="matrix(0.02146035,0,0,0.02146035,7.3592245,136.36372)"><path
         d="m 186.25,31.26 c -19.7,41.45 -29.96,86.82 -29.96,133.44 0,171.71 139.7,311.41 311.41,311.41 8.84,0 17.66,-0.37 26.44,-1.11 -51.72,54.71 -123.95,86.36 -200.49,86.36 -37.25,0 -73.38,-7.29 -107.38,-21.67 C 153.42,525.8 123.91,505.9 98.57,480.56 73.23,455.22 53.33,425.71 39.44,392.86 25.06,358.86 17.77,322.73 17.77,285.48 c 0,-31.81 5.36,-62.98 15.94,-92.65 10.22,-28.68 25.08,-55.34 44.15,-79.25 18.9,-23.7 41.4,-44.01 66.87,-60.38 13.26,-8.52 27.14,-15.85 41.53,-21.93 M 224.57,0 Z m 0,0 C 95.72,31.07 0,147.09 0,285.48 c 0,162.18 131.47,293.64 293.64,293.64 101.13,0 190.32,-51.13 243.13,-128.94 -22.15,5.34 -45.29,8.17 -69.08,8.17 -162.18,0 -293.64,-131.47 -293.64,-293.64 0,-61.04 18.63,-117.73 50.51,-164.7 v 0 z"
         id="path1-2"
         style="fill:#ffffff;fill-opacity:1" /><path
         d="m 356.89,333.2 c -1.41,0 -2.83,-0.34 -4.13,-1.02 l -34.84,-18.32 -34.84,18.32 c -2.99,1.57 -6.62,1.31 -9.35,-0.68 -2.73,-1.99 -4.1,-5.35 -3.53,-8.69 l 6.65,-38.8 -28.19,-27.48 c -2.42,-2.36 -3.29,-5.89 -2.25,-9.1 1.04,-3.22 3.82,-5.56 7.17,-6.04 l 38.95,-5.66 17.42,-35.3 c 1.5,-3.03 4.58,-4.95 7.96,-4.95 3.38,0 6.47,1.92 7.96,4.95 l 17.42,35.3 38.95,5.66 c 3.35,0.49 6.12,2.83 7.17,6.04 1.04,3.21 0.17,6.74 -2.25,9.1 l -28.19,27.48 6.65,38.8 c 0.57,3.33 -0.8,6.7 -3.53,8.69 -1.55,1.12 -3.38,1.7 -5.22,1.7 z m -38.97,-38.25 c 1.42,0 2.84,0.34 4.13,1.02 l 23.05,12.12 -4.4,-25.66 c -0.49,-2.88 0.46,-5.82 2.55,-7.86 l 18.65,-18.17 -25.77,-3.74 c -2.89,-0.42 -5.39,-2.24 -6.69,-4.86 L 317.92,224.45 306.4,247.8 c -1.29,2.62 -3.79,4.44 -6.69,4.86 l -25.77,3.74 18.65,18.17 c 2.09,2.04 3.05,4.98 2.55,7.86 l -4.4,25.66 23.05,-12.12 c 1.29,-0.68 2.71,-1.02 4.13,-1.02 z"
         id="path2-0"
         style="fill:#ffffff;fill-opacity:1" /><path
         d="m 297.01,184.6 c -1.41,0 -2.83,-0.34 -4.13,-1.02 l -15.22,-8 -15.22,8 c -2.99,1.57 -6.62,1.31 -9.35,-0.68 -2.73,-1.99 -4.1,-5.35 -3.53,-8.69 l 2.91,-16.95 -12.31,-12 c -2.42,-2.36 -3.29,-5.89 -2.25,-9.1 1.04,-3.22 3.82,-5.56 7.17,-6.04 l 17.02,-2.47 7.61,-15.42 c 1.5,-3.03 4.58,-4.95 7.96,-4.95 3.38,0 6.47,1.92 7.96,4.95 l 7.61,15.42 17.02,2.47 c 3.35,0.49 6.12,2.83 7.17,6.04 1.04,3.21 0.17,6.74 -2.25,9.1 l -12.31,12 2.91,16.95 c 0.57,3.33 -0.8,6.7 -3.53,8.69 -1.55,1.12 -3.38,1.7 -5.22,1.7 z m -19.35,-27.94 c 1.42,0 2.84,0.34 4.13,1.02 l 3.43,1.8 -0.65,-3.82 c -0.49,-2.88 0.46,-5.82 2.55,-7.86 l 2.77,-2.7 -3.83,-0.56 c -2.89,-0.42 -5.39,-2.24 -6.69,-4.86 l -1.71,-3.47 -1.71,3.47 c -1.29,2.62 -3.79,4.44 -6.69,4.86 l -3.83,0.56 2.77,2.7 c 2.09,2.04 3.05,4.98 2.55,7.86 l -0.65,3.82 3.43,-1.8 c 1.29,-0.68 2.71,-1.02 4.13,-1.02 z"
         id="path3-6"
         style="fill:#ffffff;fill-opacity:1" /><path
         d="m 468.7,394.18 c -1.41,0 -2.83,-0.34 -4.13,-1.02 l -15.22,-8 -15.22,8 c -2.99,1.57 -6.62,1.31 -9.35,-0.68 -2.73,-1.99 -4.1,-5.35 -3.53,-8.68 l 2.91,-16.95 -12.31,-12 c -2.42,-2.36 -3.29,-5.89 -2.25,-9.1 1.04,-3.22 3.82,-5.56 7.17,-6.04 l 17.02,-2.47 7.61,-15.42 c 1.5,-3.03 4.58,-4.95 7.96,-4.95 3.38,0 6.47,1.92 7.96,4.95 l 7.61,15.42 17.02,2.47 c 3.35,0.49 6.12,2.83 7.17,6.04 1.04,3.21 0.17,6.74 -2.25,9.1 l -12.31,12 2.91,16.95 c 0.57,3.33 -0.8,6.7 -3.53,8.68 -1.55,1.12 -3.38,1.7 -5.22,1.7 z m -19.35,-27.94 c 1.42,0 2.84,0.34 4.13,1.02 l 3.43,1.8 -0.65,-3.82 c -0.49,-2.88 0.46,-5.82 2.55,-7.86 l 2.77,-2.7 -3.83,-0.56 c -2.89,-0.42 -5.39,-2.24 -6.69,-4.86 l -1.71,-3.47 -1.71,3.47 c -1.29,2.62 -3.79,4.44 -6.69,4.86 l -3.83,0.56 2.77,2.7 c 2.09,2.04 3.05,4.98 2.55,7.86 l -0.65,3.82 3.43,-1.8 c 1.29,-0.68 2.71,-1.02 4.13,-1.02 z"
         id="path4-8"
         style="fill:#ffffff;fill-opacity:1" /></g><rect
       style="display:none;fill:none;fill-opacity:1;stroke:#ffffff;stroke-width:0.510129;stroke-dasharray:none;stroke-opacity:1"
       id="rect163"
       width="25.948204"
       height="20.656538"
       x="0.25506473"
       y="132.54674" /></g></svg>
