<?xml version="1.0" encoding="UTF-8"?>
<svg id="Layer_2" data-name="Layer 2" xmlns="http://www.w3.org/2000/svg" viewBox="0 0 536.78 579.12">
  <g id="Layer_1-2" data-name="Layer 1">
    <g>
      <path d="M186.25,31.26c-19.7,41.45-29.96,86.82-29.96,133.44,0,171.71,139.7,311.41,311.41,311.41,8.84,0,17.66-.37,26.44-1.11-51.72,54.71-123.95,86.36-200.49,86.36-37.25,0-73.38-7.29-107.38-21.67-32.85-13.89-62.36-33.79-87.7-59.13-25.34-25.34-45.24-54.85-59.13-87.7-14.38-34-21.67-70.13-21.67-107.38,0-31.81,5.36-62.98,15.94-92.65,10.22-28.68,25.08-55.34,44.15-79.25,18.9-23.7,41.4-44.01,66.87-60.38,13.26-8.52,27.14-15.85,41.53-21.93M224.57,0h0,0ZM224.57,0C95.72,31.07,0,147.09,0,285.48c0,162.18,131.47,293.64,293.64,293.64,101.13,0,190.32-51.13,243.13-128.94-22.15,5.34-45.29,8.17-69.08,8.17-162.18,0-293.64-131.47-293.64-293.64,0-61.04,18.63-117.73,50.51-164.7h0Z"/>
      <path d="M356.89,333.2c-1.41,0-2.83-.34-4.13-1.02l-34.84-18.32-34.84,18.32c-2.99,1.57-6.62,1.31-9.35-.68-2.73-1.99-4.1-5.35-3.53-8.69l6.65-38.8-28.19-27.48c-2.42-2.36-3.29-5.89-2.25-9.1,1.04-3.22,3.82-5.56,7.17-6.04l38.95-5.66,17.42-35.3c1.5-3.03,4.58-4.95,7.96-4.95s6.47,1.92,7.96,4.95l17.42,35.3,38.95,5.66c3.35.49,6.12,2.83,7.17,6.04,1.04,3.21.17,6.74-2.25,9.1l-28.19,27.48,6.65,38.8c.57,3.33-.8,6.7-3.53,8.69-1.55,1.12-3.38,1.7-5.22,1.7ZM317.92,294.95c1.42,0,2.84.34,4.13,1.02l23.05,12.12-4.4-25.66c-.49-2.88.46-5.82,2.55-7.86l18.65-18.17-25.77-3.74c-2.89-.42-5.39-2.24-6.69-4.86l-11.52-23.35-11.52,23.35c-1.29,2.62-3.79,4.44-6.69,4.86l-25.77,3.74,18.65,18.17c2.09,2.04,3.05,4.98,2.55,7.86l-4.4,25.66,23.05-12.12c1.29-.68,2.71-1.02,4.13-1.02Z"/>
      <path d="M297.01,184.6c-1.41,0-2.83-.34-4.13-1.02l-15.22-8-15.22,8c-2.99,1.57-6.62,1.31-9.35-.68-2.73-1.99-4.1-5.35-3.53-8.69l2.91-16.95-12.31-12c-2.42-2.36-3.29-5.89-2.25-9.1,1.04-3.22,3.82-5.56,7.17-6.04l17.02-2.47,7.61-15.42c1.5-3.03,4.58-4.95,7.96-4.95s6.47,1.92,7.96,4.95l7.61,15.42,17.02,2.47c3.35.49,6.12,2.83,7.17,6.04,1.04,3.21.17,6.74-2.25,9.1l-12.31,12,2.91,16.95c.57,3.33-.8,6.7-3.53,8.69-1.55,1.12-3.38,1.7-5.22,1.7ZM277.66,156.66c1.42,0,2.84.34,4.13,1.02l3.43,1.8-.65-3.82c-.49-2.88.46-5.82,2.55-7.86l2.77-2.7-3.83-.56c-2.89-.42-5.39-2.24-6.69-4.86l-1.71-3.47-1.71,3.47c-1.29,2.62-3.79,4.44-6.69,4.86l-3.83.56,2.77,2.7c2.09,2.04,3.05,4.98,2.55,7.86l-.65,3.82,3.43-1.8c1.29-.68,2.71-1.02,4.13-1.02Z"/>
      <path d="M468.7,394.18c-1.41,0-2.83-.34-4.13-1.02l-15.22-8-15.22,8c-2.99,1.57-6.62,1.31-9.35-.68-2.73-1.99-4.1-5.35-3.53-8.68l2.91-16.95-12.31-12c-2.42-2.36-3.29-5.89-2.25-9.1,1.04-3.22,3.82-5.56,7.17-6.04l17.02-2.47,7.61-15.42c1.5-3.03,4.58-4.95,7.96-4.95s6.47,1.92,7.96,4.95l7.61,15.42,17.02,2.47c3.35.49,6.12,2.83,7.17,6.04,1.04,3.21.17,6.74-2.25,9.1l-12.31,12,2.91,16.95c.57,3.33-.8,6.7-3.53,8.68-1.55,1.12-3.38,1.7-5.22,1.7ZM449.35,366.24c1.42,0,2.84.34,4.13,1.02l3.43,1.8-.65-3.82c-.49-2.88.46-5.82,2.55-7.86l2.77-2.7-3.83-.56c-2.89-.42-5.39-2.24-6.69-4.86l-1.71-3.47-1.71,3.47c-1.29,2.62-3.79,4.44-6.69,4.86l-3.83.56,2.77,2.7c2.09,2.04,3.05,4.98,2.55,7.86l-.65,3.82,3.43-1.8c1.29-.68,2.71-1.02,4.13-1.02Z"/>
    </g>
  </g>
</svg>