<?xml version="1.0" encoding="UTF-8" standalone="no"?>
<svg
   id="Layer_2"
   data-name="Layer 2"
   viewBox="0 0 898.7 601.5"
   version="1.1"
   sodipodi:docname="sunrise.svg"
   inkscape:version="1.4.1 (93de688d07, 2025-03-30)"
   xmlns:inkscape="http://www.inkscape.org/namespaces/inkscape"
   xmlns:sodipodi="http://sodipodi.sourceforge.net/DTD/sodipodi-0.dtd"
   xmlns="http://www.w3.org/2000/svg"
   xmlns:svg="http://www.w3.org/2000/svg">
  <defs
     id="defs17" />
  <sodipodi:namedview
     id="namedview17"
     pagecolor="#505050"
     bordercolor="#ffffff"
     borderopacity="1"
     inkscape:showpageshadow="0"
     inkscape:pageopacity="0"
     inkscape:pagecheckerboard="1"
     inkscape:deskcolor="#505050"
     inkscape:zoom="8"
     inkscape:cx="442.9375"
     inkscape:cy="309.625"
     inkscape:window-width="1600"
     inkscape:window-height="863"
     inkscape:window-x="0"
     inkscape:window-y="0"
     inkscape:window-maximized="1"
     inkscape:current-layer="g17" />
  <g
     id="Layer_1-2"
     data-name="Layer 1">
    <g
       id="g17">
      <path
         d="m 462.58473,313.17598 h -26.46946 l -0.0886,-0.45056 c -0.16966,-0.86468 -0.25576,-1.75261 -0.25576,-2.6374 0,-7.48738 6.09171,-13.57909 13.5791,-13.57909 7.48739,0 13.5791,6.09171 13.5791,13.57909 0,0.88479 -0.0861,1.77209 -0.25576,2.6374 z m -25.54257,-1.11604 h 24.61568 c 0.10306,-0.65039 0.15522,-1.31147 0.15522,-1.97192 0,-6.87218 -5.59088,-12.46305 -12.46306,-12.46305 -6.87218,0 -12.46306,5.59087 -12.46306,12.46305 0,0.65982 0.0522,1.32153 0.15522,1.97192 z"
         id="path1"
         style="stroke-width:0.06284" />
      <path
         d="m 449.35,294.42515 c -0.30854,0 -0.55802,-0.2501 -0.55802,-0.55802 v -11.45824 c 0,-0.30792 0.2501,-0.55802 0.55802,-0.55802 0.30792,0 0.55802,0.2501 0.55802,0.55802 v 11.45824 c 0,0.30792 -0.2501,0.55802 -0.55802,0.55802 z"
         id="path2"
         style="stroke-width:0.06284" />
      <path
         d="m 445.15166,294.97815 c -0.24633,0 -0.47193,-0.16464 -0.53854,-0.41349 l -1.81105,-6.7597 c -0.0798,-0.29786 0.0968,-0.60389 0.39464,-0.6837 0.29723,-0.0798 0.60389,0.0968 0.6837,0.39464 l 1.81105,6.75969 c 0.0798,0.29787 -0.0968,0.6039 -0.39464,0.6837 -0.0484,0.0132 -0.0968,0.0189 -0.14453,0.0189 z"
         id="path3"
         style="stroke-width:0.06284" />
      <path
         d="m 441.23987,296.59879 c -0.19292,0 -0.38018,-0.0999 -0.48387,-0.27901 l -5.72912,-9.92306 c -0.15396,-0.26707 -0.0628,-0.6083 0.20423,-0.76225 0.26707,-0.15396 0.60829,-0.0628 0.76225,0.20423 l 5.72912,9.92306 c 0.15396,0.26707 0.0628,0.60829 -0.20423,0.76225 -0.088,0.0509 -0.18412,0.0748 -0.27838,0.0748 z"
         id="path4"
         style="stroke-width:0.06284" />
      <path
         d="m 437.88044,299.17649 c -0.14264,0 -0.28592,-0.0547 -0.39463,-0.16339 l -4.94802,-4.94802 c -0.21806,-0.21805 -0.21806,-0.57121 0,-0.78927 0.21805,-0.21805 0.57121,-0.21805 0.78927,0 l 4.94802,4.94802 c 0.21805,0.21806 0.21805,0.57122 0,0.78927 -0.10871,0.10872 -0.25199,0.16339 -0.39464,0.16339 z"
         id="path5"
         style="stroke-width:0.06284" />
      <path
         d="m 435.30212,302.53591 c -0.0949,0 -0.19041,-0.0239 -0.27838,-0.0748 l -9.9237,-5.72975 c -0.26707,-0.15396 -0.35818,-0.49518 -0.20423,-0.76225 0.15396,-0.26707 0.49518,-0.35819 0.76225,-0.20423 l 9.92307,5.72913 c 0.26707,0.15395 0.35819,0.49517 0.20423,0.76224 -0.10306,0.1791 -0.29095,0.27901 -0.48387,0.27901 z"
         id="path6"
         style="stroke-width:0.06284" />
      <path
         d="m 433.68273,306.44833 c -0.0478,0 -0.0961,-0.006 -0.14453,-0.0188 l -6.75593,-1.81042 c -0.29786,-0.0798 -0.47444,-0.38584 -0.39463,-0.6837 0.0798,-0.29786 0.38583,-0.47444 0.68369,-0.39464 l 6.75593,1.81042 c 0.29786,0.0798 0.47445,0.38584 0.39464,0.6837 -0.0666,0.24948 -0.29221,0.41349 -0.53854,0.41349 z"
         id="path7"
         style="stroke-width:0.06284" />
      <path
         d="m 433.12911,310.64604 h -11.45824 c -0.30792,0 -0.55802,-0.2501 -0.55802,-0.55802 0,-0.30791 0.2501,-0.55802 0.55802,-0.55802 h 11.45824 c 0.30792,0 0.55802,0.25011 0.55802,0.55802 0,0.30792 -0.2501,0.55802 -0.55802,0.55802 z"
         id="path8"
         style="stroke-width:0.06284" />
      <path
         d="m 477.02913,310.64604 h -11.45824 c -0.30855,0 -0.55802,-0.2501 -0.55802,-0.55802 0,-0.30791 0.2501,-0.55802 0.55802,-0.55802 h 11.45824 c 0.30855,0 0.55802,0.25011 0.55802,0.55802 0,0.30792 -0.2501,0.55802 -0.55802,0.55802 z"
         id="path9"
         style="stroke-width:0.06284" />
      <path
         d="m 465.01727,306.44833 c -0.24633,0 -0.47193,-0.16464 -0.53854,-0.41349 -0.0798,-0.29786 0.0968,-0.60389 0.39464,-0.6837 l 6.75969,-1.81104 c 0.29724,-0.0792 0.6039,0.0968 0.6837,0.39463 0.0798,0.29786 -0.0968,0.60389 -0.39463,0.6837 l -6.7597,1.81105 c -0.0484,0.0132 -0.0968,0.0188 -0.14453,0.0188 z"
         id="path10"
         style="stroke-width:0.06284" />
      <path
         d="m 463.39788,302.53591 c -0.19292,0 -0.38018,-0.0999 -0.48387,-0.27901 -0.15395,-0.26707 -0.0628,-0.60829 0.20423,-0.76225 l 9.92307,-5.72912 c 0.26644,-0.15396 0.60829,-0.0628 0.76225,0.20423 0.15396,0.26707 0.0628,0.60829 -0.20423,0.76225 l -9.92307,5.72912 c -0.088,0.0509 -0.18412,0.0748 -0.27838,0.0748 z"
         id="path11"
         style="stroke-width:0.06284" />
      <path
         d="m 460.81956,299.17649 c -0.14265,0 -0.28593,-0.0547 -0.39464,-0.16339 -0.21805,-0.21805 -0.21805,-0.57121 0,-0.78927 l 4.94802,-4.94802 c 0.21806,-0.21805 0.57122,-0.21805 0.78927,0 0.21806,0.21806 0.21806,0.57122 0,0.78927 l -4.94802,4.94802 c -0.10871,0.10872 -0.25199,0.16339 -0.39463,0.16339 z"
         id="path12"
         style="stroke-width:0.06284" />
      <path
         d="m 457.4595,296.59879 c -0.0949,0 -0.1904,-0.0239 -0.27838,-0.0748 -0.26707,-0.15396 -0.35819,-0.49518 -0.20423,-0.76225 l 5.72912,-9.92306 c 0.15396,-0.26707 0.49518,-0.35819 0.76225,-0.20423 0.26707,0.15395 0.35819,0.49518 0.20423,0.76225 l -5.72912,9.92306 c -0.10306,0.17909 -0.29095,0.27901 -0.48387,0.27901 z"
         id="path13"
         style="stroke-width:0.06284" />
      <path
         d="m 453.54834,294.97815 c -0.0478,0 -0.0961,-0.006 -0.14453,-0.0189 -0.29786,-0.0798 -0.47444,-0.38583 -0.39464,-0.6837 l 1.81042,-6.75592 c 0.0798,-0.29787 0.38584,-0.47445 0.6837,-0.39464 0.29786,0.0798 0.47444,0.38584 0.39464,0.6837 l -1.81042,6.75593 c -0.0666,0.24947 -0.29221,0.41349 -0.53854,0.41349 z"
         id="path14"
         style="stroke-width:0.06284" />
      <path
         d="m 472.52728,313.17598 h -46.35456 c -0.30791,0 -0.55802,-0.2501 -0.55802,-0.55802 0,-0.30791 0.25011,-0.55802 0.55802,-0.55802 h 46.35456 c 0.30791,0 0.55802,0.25011 0.55802,0.55802 0,0.30792 -0.25011,0.55802 -0.55802,0.55802 z"
         id="path15"
         style="stroke:none;stroke-width:0.06284;stroke-opacity:1" />
      <path
         d="m 469.48882,316.41224 h -40.15399 c -0.30791,0 -0.55802,-0.2501 -0.55802,-0.55802 0,-0.30791 0.25011,-0.55802 0.55802,-0.55802 h 40.15399 c 0.30791,0 0.55802,0.25011 0.55802,0.55802 0,0.30792 -0.25011,0.55802 -0.55802,0.55802 z"
         id="path16"
         sodipodi:nodetypes="sssssss"
         style="stroke-width:0.06284" />
      <path
         d="m 462.37108,319.64913 h -26.04216 c -0.30791,0 -0.55802,-0.2501 -0.55802,-0.55802 0,-0.30792 0.25011,-0.55802 0.55802,-0.55802 h 26.04216 c 0.30791,0 0.55802,0.2501 0.55802,0.55802 0,0.30792 -0.25011,0.55802 -0.55802,0.55802 z"
         id="path17"
         style="stroke-width:0.06284" />
      <path
         style="fill:#ffffff;fill-opacity:1;stroke:#000000;stroke-width:2;stroke-linecap:butt;stroke-opacity:1"
         d="m 425.915,312.61252 h 46.42093"
         id="path18" />
    </g>
  </g>
</svg>
