<?xml version="1.0" encoding="UTF-8"?>
<svg id="Layer_2" data-name="Layer 2" xmlns="http://www.w3.org/2000/svg" viewBox="0 0 898.7 601.5">
  <g id="Layer_1-2" data-name="Layer 1">
    <g>
      <path d="M659.96,498.49H238.74l-1.41-7.17c-2.7-13.76-4.07-27.89-4.07-41.97,0-119.15,96.94-216.09,216.09-216.09s216.09,96.94,216.09,216.09c0,14.08-1.37,28.2-4.07,41.97l-1.41,7.17ZM253.49,480.73h391.72c1.64-10.35,2.47-20.87,2.47-31.38,0-109.36-88.97-198.33-198.33-198.33s-198.33,88.97-198.33,198.33c0,10.5.83,21.03,2.47,31.38Z"/>
      <path d="M449.35,200.1c-4.91,0-8.88-3.98-8.88-8.88V8.88c0-4.9,3.98-8.88,8.88-8.88s8.88,3.98,8.88,8.88v182.34c0,4.9-3.98,8.88-8.88,8.88Z"/>
      <path d="M382.54,208.9c-3.92,0-7.51-2.62-8.57-6.58l-28.82-107.57c-1.27-4.74,1.54-9.61,6.28-10.88,4.73-1.27,9.61,1.54,10.88,6.28l28.82,107.57c1.27,4.74-1.54,9.61-6.28,10.88-.77.21-1.54.3-2.3.3Z"/>
      <path d="M320.29,234.69c-3.07,0-6.05-1.59-7.7-4.44l-91.17-157.91c-2.45-4.25-1-9.68,3.25-12.13,4.25-2.45,9.68-1,12.13,3.25l91.17,157.91c2.45,4.25,1,9.68-3.25,12.13-1.4.81-2.93,1.19-4.43,1.19Z"/>
      <path d="M266.83,275.71c-2.27,0-4.55-.87-6.28-2.6l-78.74-78.74c-3.47-3.47-3.47-9.09,0-12.56,3.47-3.47,9.09-3.47,12.56,0l78.74,78.74c3.47,3.47,3.47,9.09,0,12.56-1.73,1.73-4.01,2.6-6.28,2.6Z"/>
      <path d="M225.8,329.17c-1.51,0-3.03-.38-4.43-1.19L63.45,236.8c-4.25-2.45-5.7-7.88-3.25-12.13,2.45-4.25,7.88-5.7,12.13-3.25l157.91,91.17c4.25,2.45,5.7,7.88,3.25,12.13-1.64,2.85-4.63,4.44-7.7,4.44Z"/>
      <path d="M200.03,391.43c-.76,0-1.53-.1-2.3-.3l-107.51-28.81c-4.74-1.27-7.55-6.14-6.28-10.88,1.27-4.74,6.14-7.55,10.88-6.28l107.51,28.81c4.74,1.27,7.55,6.14,6.28,10.88-1.06,3.97-4.65,6.58-8.57,6.58Z"/>
      <path d="M191.22,458.23H8.88c-4.9,0-8.88-3.98-8.88-8.88s3.98-8.88,8.88-8.88h182.34c4.9,0,8.88,3.98,8.88,8.88s-3.98,8.88-8.88,8.88Z"/>
      <path d="M889.82,458.23h-182.34c-4.91,0-8.88-3.98-8.88-8.88s3.98-8.88,8.88-8.88h182.34c4.91,0,8.88,3.98,8.88,8.88s-3.98,8.88-8.88,8.88Z"/>
      <path d="M698.67,391.43c-3.92,0-7.51-2.62-8.57-6.58-1.27-4.74,1.54-9.61,6.28-10.88l107.57-28.82c4.73-1.26,9.61,1.54,10.88,6.28,1.27,4.74-1.54,9.61-6.28,10.88l-107.57,28.82c-.77.21-1.54.3-2.3.3Z"/>
      <path d="M672.9,329.17c-3.07,0-6.05-1.59-7.7-4.44-2.45-4.25-1-9.68,3.25-12.13l157.91-91.17c4.24-2.45,9.68-1,12.13,3.25,2.45,4.25,1,9.68-3.25,12.13l-157.91,91.17c-1.4.81-2.93,1.19-4.43,1.19Z"/>
      <path d="M631.87,275.71c-2.27,0-4.55-.87-6.28-2.6-3.47-3.47-3.47-9.09,0-12.56l78.74-78.74c3.47-3.47,9.09-3.47,12.56,0,3.47,3.47,3.47,9.09,0,12.56l-78.74,78.74c-1.73,1.73-4.01,2.6-6.28,2.6Z"/>
      <path d="M578.4,234.69c-1.51,0-3.03-.38-4.43-1.19-4.25-2.45-5.7-7.88-3.25-12.13l91.17-157.91c2.45-4.25,7.88-5.7,12.13-3.25,4.25,2.45,5.7,7.88,3.25,12.13l-91.17,157.91c-1.64,2.85-4.63,4.44-7.7,4.44Z"/>
      <path d="M516.16,208.9c-.76,0-1.53-.1-2.3-.3-4.74-1.27-7.55-6.14-6.28-10.88l28.81-107.51c1.27-4.74,6.14-7.55,10.88-6.28,4.74,1.27,7.55,6.14,6.28,10.88l-28.81,107.51c-1.06,3.97-4.65,6.58-8.57,6.58Z"/>
      <path d="M818.18,498.49H80.52c-4.9,0-8.88-3.98-8.88-8.88s3.98-8.88,8.88-8.88h737.66c4.9,0,8.88,3.98,8.88,8.88s-3.98,8.88-8.88,8.88Z"/>
      <path d="M767.86,549.99H130.84c-4.9,0-8.88-3.98-8.88-8.88s3.98-8.88,8.88-8.88h637.02c4.9,0,8.88,3.98,8.88,8.88s-3.98,8.88-8.88,8.88Z"/>
      <path d="M656.56,601.5H242.14c-4.9,0-8.88-3.98-8.88-8.88s3.98-8.88,8.88-8.88h414.42c4.9,0,8.88,3.98,8.88,8.88s-3.98,8.88-8.88,8.88Z"/>
    </g>
  </g>
</svg>