<?xml version="1.0" encoding="UTF-8"?>
<svg id="Layer_2" data-name="Layer 2" xmlns="http://www.w3.org/2000/svg" viewBox="0 0 605.63 591.72">
  <g id="Layer_1-2" data-name="Layer 1">
    <g>
      <path d="M302.62,17.76c24.84,0,49.72,3.29,73.95,9.79,70.89,19,131.02,63.92,169.31,126.5,35.64,58.25,49.09,126.33,38.46,193.18H21.23c-6.27-39.39-4.16-79.07,6.31-118.16,8.35-31.16,21.7-60.34,39.68-86.73,17.38-25.51,38.73-47.94,63.46-66.65,24.49-18.53,51.64-32.93,80.69-42.8,29.5-10.02,60.2-15.11,91.24-15.11M302.62,0C168.95,0,46.63,89.2,10.39,224.46c-12.74,47.53-13.42,95.45-3.93,140.52h592.65c32.93-156.26-61.83-312.76-217.94-354.59-26.24-7.03-52.61-10.39-78.54-10.39h0Z"/>
      <path d="M594.93,384.51c-1.67,6-3.52,11.92-5.54,17.76H16.22c-2.04-5.85-3.9-11.77-5.58-17.76h584.29Z"/>
      <path d="M581.64,422.4c-2.57,6.03-5.32,11.95-8.26,17.76H32.37c-2.98-5.83-5.75-11.76-8.32-17.76h557.59Z"/>
      <path d="M562.23,460.29c-3.67,6.06-7.55,11.99-11.63,17.76H55.22c-4.1-5.79-7.98-11.71-11.66-17.76h518.67Z"/>
      <path d="M535.06,498.18c-5.16,6.13-10.57,12.05-16.23,17.76H86.93c-2.07-2.08-4.11-4.2-6.11-6.36-3.46-3.72-6.82-7.52-10.08-11.4h464.31Z"/>
      <path d="M496.82,536.07c-7.57,6.28-15.46,12.2-23.68,17.76H132.43c-8.15-5.52-16.03-11.45-23.61-17.76h388Z"/>
      <path d="M438.8,573.96c-14.04,7.08-28.5,13-43.24,17.76h-185.15c-15.04-4.8-29.63-10.74-43.62-17.76h272.01Z"/>
    </g>
  </g>
</svg>