<?xml version="1.0" encoding="UTF-8" standalone="no"?>
<svg
   id="Layer_2"
   data-name="Layer 2"
   viewBox="0 0 45.827018 44.774454"
   version="1.1"
   sodipodi:docname="sunset.svg"
   width="45.827019"
   height="44.774452"
   inkscape:version="1.4.1 (93de688d07, 2025-03-30)"
   xmlns:inkscape="http://www.inkscape.org/namespaces/inkscape"
   xmlns:sodipodi="http://sodipodi.sourceforge.net/DTD/sodipodi-0.dtd"
   xmlns="http://www.w3.org/2000/svg"
   xmlns:svg="http://www.w3.org/2000/svg">
  <defs
     id="defs7" />
  <sodipodi:namedview
     id="namedview7"
     pagecolor="#505050"
     bordercolor="#ffffff"
     borderopacity="1"
     inkscape:showpageshadow="0"
     inkscape:pageopacity="0"
     inkscape:pagecheckerboard="1"
     inkscape:deskcolor="#505050"
     inkscape:zoom="8.7986999"
     inkscape:cx="18.014025"
     inkscape:cy="28.526942"
     inkscape:window-width="1600"
     inkscape:window-height="863"
     inkscape:window-x="0"
     inkscape:window-y="0"
     inkscape:window-maximized="1"
     inkscape:current-layer="Layer_2" />
  <g
     id="Layer_1-2"
     data-name="Layer 1"
     transform="matrix(0.07566831,0,0,0.07566831,8.6341672e-5,0)"
     style="fill:#ffffff;fill-opacity:1">
    <g
       id="g7"
       style="fill:#ffffff;fill-opacity:1">
      <path
         d="m 302.62,17.76 c 24.84,0 49.72,3.29 73.95,9.79 70.89,19 131.02,63.92 169.31,126.5 35.64,58.25 49.09,126.33 38.46,193.18 H 21.23 c -6.27,-39.39 -4.16,-79.07 6.31,-118.16 8.35,-31.16 21.7,-60.34 39.68,-86.73 17.38,-25.51 38.73,-47.94 63.46,-66.65 24.49,-18.53 51.64,-32.93 80.69,-42.8 29.5,-10.02 60.2,-15.11 91.24,-15.11 M 302.62,0 C 168.95,0 46.63,89.2 10.39,224.46 -2.35,271.99 -3.03,319.91 6.46,364.98 H 599.11 C 632.04,208.72 537.28,52.22 381.17,10.39 354.93,3.36 328.56,0 302.63,0 v 0 z"
         id="path1"
         style="fill:#ffffff;fill-opacity:1" />
      <path
         d="m 594.93,384.51 c -1.67,6 -3.52,11.92 -5.54,17.76 H 16.22 c -2.04,-5.85 -3.9,-11.77 -5.58,-17.76 z"
         id="path2"
         style="fill:#ffffff;fill-opacity:1" />
      <path
         d="m 581.64,422.4 c -2.57,6.03 -5.32,11.95 -8.26,17.76 H 32.37 C 29.39,434.33 26.62,428.4 24.05,422.4 Z"
         id="path3"
         style="fill:#ffffff;fill-opacity:1" />
      <path
         d="m 562.23,460.29 c -3.67,6.06 -7.55,11.99 -11.63,17.76 H 55.22 c -4.1,-5.79 -7.98,-11.71 -11.66,-17.76 z"
         id="path4"
         style="fill:#ffffff;fill-opacity:1" />
      <path
         d="m 535.06,498.18 c -5.16,6.13 -10.57,12.05 -16.23,17.76 H 86.93 c -2.07,-2.08 -4.11,-4.2 -6.11,-6.36 -3.46,-3.72 -6.82,-7.52 -10.08,-11.4 h 464.31 z"
         id="path5"
         style="fill:#ffffff;fill-opacity:1" />
      <path
         d="m 496.82,536.07 c -7.57,6.28 -15.46,12.2 -23.68,17.76 H 132.43 c -8.15,-5.52 -16.03,-11.45 -23.61,-17.76 z"
         id="path6"
         style="fill:#ffffff;fill-opacity:1" />
      <path
         d="m 438.8,573.96 c -14.04,7.08 -28.5,13 -43.24,17.76 H 210.41 c -15.04,-4.8 -29.63,-10.74 -43.62,-17.76 z"
         id="path7"
         style="fill:#ffffff;fill-opacity:1" />
    </g>
  </g>
</svg>
